<?xml version="1.0" encoding="UTF-8" standalone="no"?>
<!-- Created with Inkscape (http://www.inkscape.org/) -->
<svg id="svg3185" xmlns:rdf="http://www.w3.org/1999/02/22-rdf-syntax-ns#" xmlns="http://www.w3.org/2000/svg" height="500" width="500" version="1.1" xmlns:cc="http://creativecommons.org/ns#" xmlns:xlink="http://www.w3.org/1999/xlink" xmlns:dc="http://purl.org/dc/elements/1.1/">
 <defs id="defs3187">
  <clipPath id="clipPath4023" clipPathUnits="userSpaceOnUse">
   <rect id="rect4025" opacity="0.99" stroke-linejoin="round" height="469.96" width="469.96" stroke="#f00" stroke-linecap="round" y="15.022" x="15.022" stroke-width="30.044" fill="#f00"/>
  </clipPath>
  <clipPath id="clipPath3026" clipPathUnits="userSpaceOnUse">
   <rect id="rect3028" height="472.75" width="461.98" y="9.7393" x="17.509" fill="#f00"/>
  </clipPath>
 </defs>
 <metadata id="metadata3190">
  <rdf:RDF>
   <cc:Work rdf:about="">
    <dc:format>image/svg+xml</dc:format>
    <dc:type rdf:resource="http://purl.org/dc/dcmitype/StillImage"/>
    <dc:title/>
   </cc:Work>
  </rdf:RDF>
 </metadata>
 <g id="layer2">
  <image id="image3021" clip-path="url(#clipPath3026)" xlink:href="action_back.jpg" height="308" width="538" y="25.087" x="-19.923"/>
 </g>
 <g id="layer6">
  <g id="g3957" clip-path="url(#clipPath4023)">
   <g id="g3127">
    <image id="image4413-2" width="190.23" xlink:href="card_back.png" height="292.61" y="257.65" x="156.52"/>
    <image id="image4413-2-8" width="190.23" xlink:href="card_back.png" transform="rotate(8.4942)" height="292.61" y="212.68" x="245.66"/>
    <image id="image4413-2-6" width="190.23" xlink:href="card_back.png" transform="rotate(14.375)" height="292.61" y="176.04" x="320.1"/>
    <image id="image4413-2-5" width="190.23" xlink:href="card_back.png" transform="matrix(.91830 .39588 -.39588 .91830 0 0)" height="292.61" y="108.37" x="392.64"/>
    <image id="image4413-2-0" width="190.23" xlink:href="card_back.png" transform="rotate(32.824)" height="292.61" y="22.904" x="454.72"/>
    <image id="image4413-2-9" width="190.23" xlink:href="card_back.png" transform="matrix(.74746 .66430 -.66430 .74746 0 0)" height="292.61" y="-64.787" x="499.63"/>
    <image id="image4413-2-00" width="190.23" xlink:href="card_back.png" transform="matrix(.62507 .78056 -.78056 .62507 0 0)" height="292.61" y="-165.87" x="533.46"/>
    <image id="image4413-2-61" width="190.23" xlink:href="card_back.png" transform="rotate(62.496)" height="292.61" y="-287.34" x="540.15"/>
    <image id="image4413-2-3" width="190.23" xlink:href="card_back.png" transform="rotate(67.458)" height="292.61" y="-343.62" x="544.54"/>
    <image id="image4413-2-89" width="190.23" xlink:href="card_back.png" transform="rotate(74.081)" height="292.61" y="-419.13" x="540.61"/>
    <image id="image4413-2-34" width="190.23" xlink:href="card_back.png" transform="rotate(84.741)" height="292.61" y="-534.68" x="504.43"/>
    <image id="image4413-2-9-4-0" width="190.23" xlink:href="card_back.png" transform="matrix(.66430 -.74746 .74746 .66430 0 0)" height="292.61" y="242.18" x="-362.69"/>
    <image id="image4413-2-00-9-9" width="190.23" xlink:href="card_back.png" transform="matrix(.78056 -.62507 .62507 .78056 0 0)" height="292.61" y="281.78" x="-264.94"/>
    <image id="image4413-2-61-6-7" width="190.23" xlink:href="card_back.png" transform="rotate(-27.505)" height="292.61" y="306.66" x="-156.27"/>
    <image id="image4413-2-3-3-3" width="190.23" xlink:href="card_back.png" transform="rotate(-22.542)" height="292.61" y="308.39" x="-97.892"/>
    <image id="image4413-2-89-7-72" width="190.23" xlink:href="card_back.png" transform="rotate(-15.919)" height="292.61" y="302.62" x="-22.337"/>
    <image id="image4413-2-34-8-60" width="190.23" xlink:href="card_back.png" transform="rotate(-5.2603)" height="292.61" y="278.74" x="84.694"/>
   </g>
   <image id="image4413-2-1" width="190.23" xlink:href="card_back.png" height="292.61" y="177.39" x="156.52"/>
  </g>
 </g>
 <g id="layer9">
  <path id="path3152" d="m194.02 79.781h111.96l-55.98 55.979z"/>
 </g>
 <g id="layer1" transform="translate(0 -552.36)">
  <rect id="rect3193" opacity="0.99" stroke-linejoin="round" height="469.96" width="469.96" stroke="#000" stroke-linecap="round" y="567.38" x="15.022" stroke-width="30.044" fill="none"/>
 </g>
</svg>
