<?xml version="1.0" encoding="UTF-8" standalone="no"?>
<!-- Created with Inkscape (http://www.inkscape.org/) -->
<svg id="svg2" xmlns:rdf="http://www.w3.org/1999/02/22-rdf-syntax-ns#" xmlns="http://www.w3.org/2000/svg" height="32" width="32" version="1.1" xmlns:cc="http://creativecommons.org/ns#" xmlns:dc="http://purl.org/dc/elements/1.1/">
 <metadata id="metadata7">
  <rdf:RDF>
   <cc:Work rdf:about="">
    <dc:format>image/svg+xml</dc:format>
    <dc:type rdf:resource="http://purl.org/dc/dcmitype/StillImage"/>
    <dc:title/>
   </cc:Work>
  </rdf:RDF>
 </metadata>
 <g id="layer1" fill-opacity="0.6" fill="#333" transform="translate(0 -1020.4)">
  <g id="g4149" fill="#333" fill-opacity="0.6">
   <rect id="rect3844" height="1.3" width="1.3" y="1024.4" x="4"/>
   <rect id="rect3844-7" height="1.3" width="1.3" y="1024.4" x="6.7"/>
   <rect id="rect3844-4" height="1.3" width="1.3" y="1024.4" x="9"/>
   <rect id="rect3844-7-0" height="1.3" width="1.3" y="1024.4" x="11.7"/>
   <rect id="rect3844-4-9" height="1.3" width="1.3" y="1024.4" x="14"/>
   <rect id="rect3844-7-0-4" height="1.3" width="1.3" y="1024.4" x="16.7"/>
   <rect id="rect3844-8" height="1.3" width="1.3" y="1024.4" x="19"/>
   <rect id="rect3844-7-8" height="1.3" width="1.3" y="1024.4" x="21.7"/>
   <rect id="rect3844-4-2" height="1.3" width="1.3" y="1024.4" x="24"/>
   <rect id="rect3844-7-0-45" height="1.3" width="1.3" y="1024.4" x="26.7"/>
   <rect id="rect3844-71" height="1.3" width="1.3" y="1047.1" x="4"/>
   <rect id="rect3844-7-1" height="1.3" width="1.3" y="1047.1" x="6.7"/>
   <rect id="rect3844-4-5" height="1.3" width="1.3" y="1047.1" x="9"/>
   <rect id="rect3844-7-0-2" height="1.3" width="1.3" y="1047.1" x="11.7"/>
   <rect id="rect3844-4-9-7" height="1.3" width="1.3" y="1047.1" x="14"/>
   <rect id="rect3844-7-0-4-6" height="1.3" width="1.3" y="1047.1" x="16.7"/>
   <rect id="rect3844-8-1" height="1.3" width="1.3" y="1047.1" x="19"/>
   <rect id="rect3844-7-8-4" height="1.3" width="1.3" y="1047.1" x="21.7"/>
   <rect id="rect3844-4-2-2" height="1.3" width="1.3" y="1047.1" x="24"/>
   <rect id="rect3844-7-0-45-3" height="1.3" width="1.3" y="1047.1" x="26.7"/>
   <rect id="rect3844-7-2" transform="scale(-1)" height="1.3" width="1.3" y="-1028.4" x="-28"/>
   <rect id="rect3844-4-1" transform="scale(-1)" height="1.3" width="1.3" y="-1030.7" x="-28"/>
   <rect id="rect3844-7-0-6" transform="scale(-1)" height="1.3" width="1.3" y="-1033.4" x="-28"/>
   <rect id="rect3844-4-9-8" transform="scale(-1)" height="1.3" width="1.3" y="-1035.7" x="-28"/>
   <rect id="rect3844-7-0-4-5" transform="scale(-1)" height="1.3" width="1.3" y="-1038.4" x="-28"/>
   <rect id="rect3844-8-7" transform="scale(-1)" height="1.3" width="1.3" y="-1040.7" x="-28"/>
   <rect id="rect3844-7-8-6" transform="scale(-1)" height="1.3" width="1.3" y="-1043.4" x="-28"/>
   <rect id="rect3844-4-2-1" transform="scale(-1)" height="1.3" width="1.3" y="-1045.7" x="-28"/>
   <rect id="rect3844-7-2-9" transform="scale(-1)" height="1.3" width="1.3" y="-1028.4" x="-5.3"/>
   <rect id="rect3844-4-1-2" transform="scale(-1)" height="1.3" width="1.3" y="-1030.7" x="-5.3"/>
   <rect id="rect3844-7-0-6-7" transform="scale(-1)" height="1.3" width="1.3" y="-1033.4" x="-5.3"/>
   <rect id="rect3844-4-9-8-9" transform="scale(-1)" height="1.3" width="1.3" y="-1035.7" x="-5.3"/>
   <rect id="rect3844-7-0-4-5-5" transform="scale(-1)" height="1.3" width="1.3" y="-1038.4" x="-5.3"/>
   <rect id="rect3844-8-7-4" transform="scale(-1)" height="1.3" width="1.3" y="-1040.7" x="-5.3"/>
   <rect id="rect3844-7-8-6-3" transform="scale(-1)" height="1.3" width="1.3" y="-1043.4" x="-5.3"/>
   <rect id="rect3844-4-2-1-1" transform="scale(-1)" height="1.3" width="1.3" y="-1045.7" x="-5.3"/>
   <rect id="rect4115" height="6" width="6" y="1029.4" x="9"/>
   <rect id="rect4115-2" height="6" width="6" y="1029.4" x="17"/>
   <rect id="rect4115-3" height="6" width="6" y="1037.4" x="9"/>
   <rect id="rect4115-34" height="6" width="6" y="1037.4" x="17"/>
  </g>
 </g>
</svg>
