<?xml version="1.0" encoding="UTF-8" standalone="no"?>
<!-- Created with Inkscape (http://www.inkscape.org/) -->
<svg id="svg2" xmlns:rdf="http://www.w3.org/1999/02/22-rdf-syntax-ns#" xmlns="http://www.w3.org/2000/svg" height="32" width="32" version="1.1" xmlns:cc="http://creativecommons.org/ns#" xmlns:dc="http://purl.org/dc/elements/1.1/">
 <metadata id="metadata7">
  <rdf:RDF>
   <cc:Work rdf:about="">
    <dc:format>image/svg+xml</dc:format>
    <dc:type rdf:resource="http://purl.org/dc/dcmitype/StillImage"/>
    <dc:title/>
   </cc:Work>
  </rdf:RDF>
 </metadata>
 <path id="path3763" fill-opacity="0.6" fill="#333" d="m16.734 4.0156-13.718 10.875l4.5625 13.094h15.25l6.1562-12.094-12.25-11.875zm-0.0625 1.3438 2.4688 2.4062-3.1562 6.7187h-10.844l11.531-9.125zm3.25 3.1562 6.1562 5.9687h-8.9688l2.8125-5.9687zm-15.625 6.9687h5.875l4.25 5.8125-6.25 5.375-3.875-11.188zm7.0625 0h11.938l-6.8438 5.5h-1.0625l-4.0312-5.5zm13.5 0h2.25l0.625 0.59375-5.2812 10.469-5.0625-5 7.4688-6.0625zm-9.6875 6.5h1.2188l5.0938 5h-12.094l5.7812-5z"/>
</svg>
