<?xml version="1.0" encoding="UTF-8" standalone="no"?>
<!-- Created with Inkscape (http://www.inkscape.org/) -->
<svg id="svg3970" xmlns:rdf="http://www.w3.org/1999/02/22-rdf-syntax-ns#" xmlns="http://www.w3.org/2000/svg" height="32" width="32" version="1.1" xmlns:cc="http://creativecommons.org/ns#" xmlns:dc="http://purl.org/dc/elements/1.1/">
 <metadata id="metadata3975">
  <rdf:RDF>
   <cc:Work rdf:about="">
    <dc:format>image/svg+xml</dc:format>
    <dc:type rdf:resource="http://purl.org/dc/dcmitype/StillImage"/>
    <dc:title/>
   </cc:Work>
  </rdf:RDF>
 </metadata>
 <g id="layer1" fill-opacity="0.6" fill="#333" transform="translate(0 -1020.4)">
  <g id="g3784" fill="#333" fill-opacity="0.6">
   <path id="path3773" d="m14 5.3125c-0.009 3.2613-3.526 5.1345-5.9062 3.375l-2.2813 3.6245c2.8053 1.52 2.7123 5.756 0 7.188l2.0937 3.5c2.9998-1.871 6.1348 0.53 6.0938 3.688h4.094c0.028-3.256 3.444-5.184 5.906-3.376l2.094-3.812c-2.581-1.194-2.783-5.656 0-7l-1.906-3.6875c-2.76 1.9045-6.07-0.2475-6.094-3.5h-4.094zm2 3.9375c3.728 0 6.75 3.022 6.75 6.75s-3.022 6.75-6.75 6.75-6.75-3.022-6.75-6.75 3.022-6.75 6.75-6.75z" transform="translate(0 1020.4)"/>
   <path id="path3779" d="m16 10c-3.314 0-6 2.686-6 6s2.686 6 6 6 6-2.686 6-6-2.686-6-6-6zm0 2.25c2.071 0 3.75 1.679 3.75 3.75s-1.679 3.75-3.75 3.75-3.75-1.679-3.75-3.75 1.679-3.75 3.75-3.75z" transform="translate(0 1020.4)"/>
  </g>
 </g>
</svg>
