<?xml version="1.0" encoding="UTF-8" standalone="no"?>
<!-- Created with Inkscape (http://www.inkscape.org/) -->
<svg id="svg3970" xmlns:rdf="http://www.w3.org/1999/02/22-rdf-syntax-ns#" xmlns="http://www.w3.org/2000/svg" height="32" width="32" version="1.1" xmlns:cc="http://creativecommons.org/ns#" xmlns:dc="http://purl.org/dc/elements/1.1/">
 <metadata id="metadata3975">
  <rdf:RDF>
   <cc:Work rdf:about="">
    <dc:format>image/svg+xml</dc:format>
    <dc:type rdf:resource="http://purl.org/dc/dcmitype/StillImage"/>
    <dc:title/>
   </cc:Work>
  </rdf:RDF>
 </metadata>
 <g id="layer1" fill-opacity="0.6" fill="#333" transform="translate(0 -1020.4)">
  <g id="g3760" fill="#333" fill-opacity="0.6">
   <path id="path2985" d="m16 5.5c-5.799 0-10.5 4.701-10.5 10.5s4.701 10.5 10.5 10.5 10.5-4.701 10.5-10.5-4.701-10.5-10.5-10.5zm0 1.75c4.832 0 8.75 3.918 8.75 8.75s-3.918 8.75-8.75 8.75-8.75-3.918-8.75-8.75 3.918-8.75 8.75-8.75z" transform="translate(0 1020.4)"/>
   <path id="path3758" d="m16.1 8.8 0.4 7.2 4.5 4.7-0.8 1-5.4-4.9 0.3-8z" transform="translate(0 1020.4)"/>
  </g>
 </g>
</svg>
