<svg xmlns:svg="http://www.w3.org/2000/svg" xmlns="http://www.w3.org/2000/svg" version="1.1" overflow="visible" width="18" height="18" viewBox="0 0 18 18" style="stroke-linejoin:bevel;stroke-width:0.5"><g transform="matrix(0.13114229,0,0,-0.13114229,-1.3936961,-2.4498693)"><g stroke-miterlimit="79.84" fill="#000"><path d="m79.26-155.77c-6.11 0.76-9.5 4.26-10.67 8.23-0.61 2.04-0.62 4.22-0.12 6.16l0.01-0.02-0.07 0.19c1.56 4.95 3.06 9.86 3.28 13.91-15.1-10.68-24.55-13.61-34.72-21.01-1.05-0.96-2.47-1.72-4.33-2.19-6.79-1.73-12.73 5.44-13.46 11.05-0.87 6.77 4.84 12.23 9.69 12.09 11.12 1.34 24.05 3.62 33.41 8.17-11.51 7.5-19.33 22.79-19.82 37.68-0.82 25 27.51 30.64 41.89 62.83 2.34-37.04 17.5-33.91 10.47-74.71 17.51 15.95-4.22 26.26 18.6 53.14-6.41-37.35 5.31-31.16 2.97-52.98-1.22-11.37-7.39-19.73-15.52-24.87 0.68-0.36-0.45 0.24 0.24-0.11 10.23 2.32 16.14 9.79 18.47 19.85 3.07-13.91-1.93-21.39-17.92-20.13 7.67-3.83 17.57-7.56 25.83-9.91l-0.21-0.11 0 0c2.16 0.26 4.46-0.15 6.85-1.58 2.22-1.33 4.83-4.66 5.21-7.75 0.95-7.79-7.33-14.37-12.9-15.98-6.44-1.74-10.64 0.78-12.37 4.85-0.32 0.75-0.56 1.56-0.7 2.4-0.42 0.68-0.82 1.42-1.2 2.23-6.95 6.13-14.64 11.52-22.82 16.41 0.94-1.35 3.78-6.17 5.78-9.35 0.15-0.18 0.29-0.37 0.64-1.02 0.02-0.02 0.03-0.04 0.04-0.05l0.11-0.04c1.03-1.74 1.49-3.87 1.45-5.66-0.13-6.11-7.52-13.05-18.11-11.72zm15.82 11.77c0.06 2.36-0.96 5.04-2.7 6.11-5.69 3.48-15.67 3.08-19.87-0.8-1.04-0.97-1.78-2.52-2.02-4.27 0.06-0.01 0.12-0.01 0.19-0.01 0.23-0.02 0.51-0.05 0.82-0.08 0.62-0.06 1.37-0.15 2.11-0.25 0.23-0.03 0.46-0.06 0.69-0.1 0.11 1.03 0.64 1.95 1.49 2.75 2.23 2.06 6.74 3.12 10.65 2.51 0.08 0.34 0.15 0.69 0.23 0.99 0.08 0.31 0.18 0.62 0.33 0.84 0.11 0.16 0.33 0.2 0.49 0.08 0.15-0.11 0.19-0.32 0.08-0.48-0.03-0.05-0.07-0.12-0.11-0.23-0.04-0.11-0.08-0.24-0.12-0.39-0.07-0.27-0.14-0.59-0.21-0.93 3.04-0.64 5.6-2.36 6.24-5.49 0.42-2.05-0.94-3.06-1.04-3.66-0.03-0.13-0.13-0.24-0.26-0.27l-0.02 0-0.03-0.06c-0.21-0.4-0.48-1.18-0.93-1.67 0.07-0.04 0.13-0.07 0.18-0.07 0.19-0.04 0.31-0.22 0.27-0.41-0.03-0.19-0.21-0.31-0.4-0.28-0.2 0.04-0.4 0.15-0.58 0.28-0.92-0.65-3.76-2.79-5.68-2.5-3.53 0.52-3.78 0.9-6.15 2.54-2.88 1.99-4.21 3.91-4.42 5.61-0.26 0.04-0.54 0.08-0.82 0.11-0.73 0.1-1.46 0.19-2.07 0.25-0.31 0.03-0.58 0.06-0.8 0.07-0.08 0.01-0.15 0.01-0.21 0.02-0.05-1.01 0.06-2.07 0.37-3.1 0.91-3.07 3.53-5.96 8.76-6.61 9.62-1.21 15.45 5.09 15.54 9.5zm30.95-8.36c1.19 0.35 2.48 0.93 3.76 1.69-0.31 0.27-0.72 0.58-1.17 0.93-2.88-1.25-6.05-1.47-8.47-0.58-3.12 1.15-4.92 4.11-3.45 8.77 0.46 1.43 1.61 2.85 3.1 4.01 3.37 2.64 8.83 4.15 12.28 1.17 0.22 0.3 0.45 0.61 0.69 0.92 0.74 0.98 1.56 1.97 2.36 2.56-0.58 0.63-1.2 1.15-1.78 1.5-6.45 3.87-12.44-0.94-16.1-5.58-2.63-3.32-3.23-8-1.78-11.41 1.4-3.28 4.78-5.53 10.56-3.98zm-36.33 2.72 0.32 0.22c-0.24 0.24-0.51 0.52-0.77 0.79-0.17 0.16-0.33 0.32-0.51 0.47-0.19-0.16-0.39-0.31-0.6-0.46-1.26-0.92-2.81-1.72-3.74-1.69-2.14 0.08-3.47 1.34-4.72 2-2.2 1.17-2.99 2.44-2.78 3.59-0.09-0.03-0.2-0.03-0.29 0.02l-0.04 0.01c0 0.01-0.03 0.02-0.1 0.04-0.06 0.02-0.14 0.04-0.23 0.06-0.19 0.05-0.44 0.1-0.72 0.15-0.16 0.03-0.32 0.06-0.5 0.09 0.25-1.43 1.44-3.08 4.11-4.93 2.33-1.61 2.47-1.92 5.86-2.42 1.36-0.2 3.39 1.13 4.71 2.06zm48.13 11.62c-0.19 1.54-1.1 3.23-2.21 4.58-0.68-0.48-1.45-1.38-2.27-2.45-0.25-0.33-0.49-0.66-0.74-1 0.37-0.4 0.72-0.87 1.03-1.4l0.46-0.96 0.15-0.07c0.06-0.06 0.1-0.14 0.12-0.25 0.17-1.93-0.11-2.89-0.52-3.63-0.42-0.75-0.81-1.06-1.01-1.99-0.13-0.64-1.02-2.38-1.71-3.02l-0.16-0.11 0-0.01c-0.02-0.03-0.06-0.08-0.12-0.16-0.02-0.04-0.06-0.07-0.09-0.1-0.45-0.29-0.92-0.56-1.39-0.8 0.42-0.33 0.79-0.62 1.07-0.87 4.16 2.71 7.99 7.33 7.39 12.24zm-9.89-11.21c-0.55 0.41-1.12 0.84-1.65 1.24-2.3-1.01-5.02-1.02-7.25 0.66-1.18 0.88-1.59 2.58-1.09 3.87 0.29 0.74 0.85 1.55 1.58 2.33 1.54 1.66 3.89 3.29 6.11 3.86 1.83 0.48 3.62 0.24 4.73-1.3 0.39 0.44 0.81 0.99 1.26 1.6-3.09 2.73-8.06 1.45-11.38-1.15-1.42-1.11-2.45-2.42-2.85-3.66-1.37-4.33 0.3-6.85 3-7.85 2.11-0.78 4.91-0.64 7.54 0.4zm-40.2 1.18c0.15 0.11 0.3 0.22 0.45 0.34-0.39 0.27-0.8 0.47-1.23 0.54-0.1 0.02-0.18 0.08-0.23 0.15-1.89-1.24-4.67-1.19-6.52 0.55-0.04 0.04-0.07 0.09-0.09 0.15-0.36 1.06 0.06 1.91 0.83 2.47 1.15 0.86 3.13 1.12 4.68 0.87 0.78-0.13 1.51-0.41 1.98-0.86 0.5-0.49 0.69-1.15 0.39-1.93-0.01-0.03-0.02-0.06-0.04-0.08-0.18-0.25-0.39-0.48-0.61-0.69 0.51-0.14 0.97-0.4 1.39-0.71 0.77 0.69 1.28 1.35 1.33 1.78 0.01 0.04 0.02 0.09 0.04 0.12l0.07 0.09-0.02 0.23c-0.34 2.36-2.76 3.33-5.54 3.31-3.01-0.02-6.07-1.19-6.86-2.65-0.25-0.46-0.27-0.95 0.03-1.49 0.32-0.56 1-1.18 2.22-1.83 1.45-0.77 2.49-1.85 4.41-1.92 0.67-0.02 2.03 0.63 3.32 1.56zm3.84 0.92c0.04 0.05 0.09 0.09 0.13 0.11l0.02 0 0.02 0.08c0.34 0.78 1.26 1.48 0.94 3.05-0.57 2.77-2.91 4.33-5.72 4.94-0.04-0.18-0.09-0.35-0.14-0.51-0.11-0.34-0.25-0.68-0.45-0.93-0.12-0.15-0.34-0.17-0.49-0.04-0.15 0.12-0.17 0.34-0.05 0.49 0.12 0.14 0.22 0.37 0.33 0.69 0.04 0.13 0.08 0.28 0.12 0.43-3.66 0.57-7.89-0.37-10.02-2.35-0.71-0.65-1.19-1.44-1.28-2.33 0.24-0.04 0.47-0.08 0.67-0.12 0.3-0.05 0.56-0.11 0.77-0.16 0.11-0.02 0.21-0.05 0.29-0.07 0.08-0.03 0.16-0.06 0.23-0.09 0.01-0.01 0.02-0.01 0.02-0.02 0.07-0.03 0.11-0.08 0.15-0.13 0.01 0.02 0.02 0.04 0.03 0.05 0.98 1.82 4.4 3 7.46 3.02 3.13 0.02 6.21-1.17 6.29-4.49 0-0.11-0.05-0.2-0.12-0.27l-0.09-0.05-0.02-0.1c-0.22-0.56-0.75-1.19-1.39-1.77 0.16-0.15 0.31-0.3 0.46-0.44 0.31-0.31 0.57-0.59 0.82-0.83 0.4 0.4 0.65 1.36 1.02 1.84zm37.54-1.56 1.18 0.69 0.05 0.07c0.02 0.03 0.02 0.03 0.02 0.04l0.01 0.01c0.04 0.06 0.1 0.11 0.17 0.15 0.35 0.15 1.43 2.01 1.57 2.7 0.23 1.06 0.77 1.62 1.09 2.19 0.28 0.51 0.52 1.18 0.47 2.57l-0.03 0.38-0.13 0.15c-0.36 0.91-0.83 1.65-1.36 2.25-0.49-0.66-0.96-1.28-1.39-1.75 0.02-0.05 0.05-0.11 0.08-0.17l0.1-0.26 0.12-0.05c0.06-0.05 0.1-0.13 0.12-0.23 0.59-3.13-1.39-6.14-4.16-7.67 0.55-0.42 1.14-0.86 1.69-1.27 0.13 0.06 0.27 0.13 0.4 0.2zm-97.04 0.39c4.59 1.17 5.55 4.33 4.8 7.94-0.8 3.8-3.52 7.88-6.09 10-1.19 0.98-3.06 0.87-4.82-0.06 0.3-0.34 0.63-0.88 0.89-1.3 0.31-0.52 0.61-1.06 0.81-1.42 7.31 0.8 10.66-12.19 5.19-14.24-0.52-0.19-2-0.62-3.02-0.34l-0.38 0.15-0.02 0.01 0 0-0.58 0.35c-0.23 0.16-0.46 0.35-0.68 0.56-0.01-0.07-0.03-0.14-0.04-0.21-0.09-0.42-0.11-0.78-0.06-1.05 1.27-0.57 2.64-0.74 4-0.39zm93.63 0.86c-0.03 0.11-0.01 0.23 0.06 0.32 0.13 0.16 0.36 0.19 0.52 0.06 0.03-0.02 0.06-0.05 0.1-0.07 2.51 1.26 4.4 3.83 4.15 6.56l-0.04 0.24c-0.07 0.05-0.13 0.11-0.15 0.2-0.78 2.23-2.51 2.67-4.52 2.15-1.31-0.34-2.69-1.08-3.91-1.99 0.07-0.04 0.13-0.11 0.16-0.19 0.14-0.35 0.24-0.66 0.33-0.95 0.67 0.45 1.43 0.8 2.23 0.96l0.36 0.05 0.02 0.03c0.05 0.06 0.11 0.11 0.2 0.14 1.34 0.35 2.32 0.2 2.85-0.49 0.5-0.65 0.45-1.62 0.16-2.53-0.59-1.84-2.33-4-4.35-4.45-2.38-0.52-3.83-0.05-4.25 1.14-0.4 1.12 0.23 2.6 1.23 3.77 0.27 0.32 0.58 0.63 0.92 0.91-0.09 0.35-0.22 0.72-0.39 1.16 0 0.01 0 0.02 0 0.03-0.49-0.4-0.93-0.82-1.32-1.24-0.69-0.74-1.19-1.48-1.43-2.1-0.39-1-0.06-2.35 0.84-3.01 1.9-1.43 4.21-1.48 6.23-0.7zm-98.12 1.41c-2.38 2.78-4.11 7.98-3.05 10.79 0.32 0.87 0.92 1.54 1.85 1.83 0.18 0.06 0.35 0.1 0.52 0.14-0.19 0.34-0.43 0.76-0.67 1.17-0.18 0.3-0.36 0.59-0.53 0.83-0.15 0.22-0.28 0.39-0.38 0.48-2.38-1.55-4.38-4.59-3.89-8.37 0.42-3.25 2.84-6.83 5.89-8.44 0 0.48 0.11 1.03 0.26 1.57zm59.51 0.23 0.26 0.32 0.05 0.14c0.1 0.43-0.02 0.74-0.28 1-0.33 0.31-0.9 0.55-1.61 0.67-1.44 0.24-3.21-0.03-4.16-0.74-0.5-0.37-0.75-0.83-0.65-1.43l0.05-0.17 0-0.01 0 0 0-0.01c1.89-1.69 4.81-1.42 6.34 0.23zm-54.49-0.9c2.34 0.88 2.81 4.51 1.58 7.84-0.38 1.01-0.89 1.96-1.53 2.75-0.3-0.68-0.67-1.31-1.01-1.95 0.55-0.7 1.08-1.47 1.5-2.23 0.62-1.11 1.06-2.3 0.87-3.27-0.21-1.06-1.12-1.7-2.75-1.81-0.87-0.05-1.67 0.32-2.38 0.96-0.13-0.35-0.26-0.72-0.38-1.07-0.04-0.13-0.07-0.25-0.11-0.37 0.45-0.47 0.91-0.84 1.38-1.07l0.02-0.01c0.64-0.36 2.14-0.02 2.81 0.23zm91.12 0.02c1.66 0.37 3.26 2.27 3.8 3.95 0.27 0.85 0.23 1.51-0.04 1.86-0.22 0.28-0.69 0.5-1.64 0.33l-0.21-0.05-0.03-0.07c-0.07-0.07-0.16-0.12-0.26-0.13-0.98-0.07-1.93-0.48-2.74-1.07 0.02-0.05 0.03-0.11 0.04-0.16 0.11-0.49 0.21-1.01 0.34-1.7 0.1 0 0.2-0.01 0.31-0.03 0.32-0.05 0.65-0.17 0.96-0.35 0.12-0.07 0.19-0.19 0.19-0.32l0-1.1c0-0.02 0-0.04-0.01-0.06-0.05-0.34-0.3-0.55-0.55-0.66-0.25-0.1-0.54-0.14-0.82-0.13-0.55 0-1.19 0.16-1.54 0.41-0.1 0.07-0.16 0.18-0.16 0.3 0.01 0.68 0.19 1.22 0.56 1.56 0.11 0.09 0.22 0.17 0.34 0.23-0.12 0.6-0.2 1.06-0.29 1.49-0.2-0.19-0.39-0.38-0.56-0.59-0.96-1.12-1.35-2.32-1.1-3.04 0.23-0.65 1.11-1.18 3.41-0.67zm-41.54 0.74c-0.1 0.12-0.11 0.29-0.03 0.42 0.39 0.59 0.95 0.97 1.52 1.08 0.81 0.15 1.58-0.26 1.85-1.25 0.03-0.09 0.01-0.2-0.04-0.28-0.33-0.49-0.97-0.71-1.58-0.71-0.61-0.01-1.28 0.22-1.72 0.74zm-1.43-0.09 0 0.01-0.07 0.06c0.02-0.02 0.05-0.05 0.07-0.07zm3.99 0.28 0.05 0.05-0.02 0.05c-0.2 0.46-0.58 0.6-0.97 0.53-0.27-0.06-0.57-0.21-0.82-0.48l-0.07-0.08 0.04-0.03c0.26-0.18 0.61-0.28 0.95-0.28 0.36 0 0.65 0.1 0.84 0.24zm38.85 0.19c0.04 0.01 0.08 0.04 0.1 0.06l0.01 0.02 0 0.84c-0.19 0.08-0.37 0.14-0.53 0.17-0.1 0.01-0.2 0.02-0.28 0.01-0.04-0.02-0.08-0.04-0.12-0.05-0.05 0-0.09-0.01-0.13 0-0.08-0.03-0.16-0.08-0.22-0.13-0.13-0.12-0.24-0.32-0.3-0.65l-0.02-0.16 0.02-0.01c0.08-0.03 0.17-0.06 0.28-0.09 0.21-0.05 0.45-0.08 0.67-0.09 0.22 0 0.41 0.03 0.52 0.08zm-95.27 1.73c-1.65 1.92-2.6 5.19-2.24 7.01 0.1 0.54 0.33 1.02 0.74 1.33 0.01 0 0.02 0.01 0.04 0.02 0.16 0.09 0.42 0.36 0.73 0.5 0.41 0.19 0.87 0.15 1.42-0.25 0.39-0.29 1.24-1.14 2.14-2.22 0.34 0.64 0.7 1.26 0.97 1.92-1.41 1.42-3.3 2.12-5.52 1.42-0.68-0.21-1.14-0.7-1.4-1.39-0.91-2.43 0.58-7.07 2.64-9.71 0.15 0.47 0.32 0.93 0.48 1.37zm4.98 0.41c0.14 0.7-0.18 1.68-0.79 2.78-0.35 0.63-0.77 1.26-1.22 1.85-0.08-0.18-0.29-0.25-0.47-0.17-0.19 0.08-0.27 0.29-0.19 0.47 0.05 0.12 0.11 0.23 0.16 0.34-0.93 1.16-1.85 2.08-2.21 2.34-0.38 0.28-0.57 0.24-0.69 0.18-0.17-0.08-0.32-0.22-0.49-0.35l-0.15-0.1c-0.21-0.15-0.38-0.43-0.46-0.88-0.32-1.62 0.51-4.33 1.81-6.06 0.04 0.14 0.08 0.28 0.12 0.41 0 0.01 0 0.01 0 0.02-0.14 0.15-0.28 0.31-0.4 0.49-0.68 0.96-0.97 2.24-0.25 3.51 0.07 0.11 0.19 0.18 0.32 0.18 0.74 0.01 1.79-0.7 2.55-1.51 0.76-0.82 1.44-1.97 1.19-3-0.1-0.38-0.46-0.81-0.82-0.93-0.07-0.02-0.16-0.04-0.26-0.02-0.58 0.07-1.19 0.34-1.73 0.75-0.05-0.18-0.11-0.36-0.18-0.54 0.64-0.64 1.34-1.03 2.07-0.98 1.47 0.09 1.97 0.61 2.09 1.22zm-2.19 0.27 0.01 0c0.03 0.02 0.09 0.07 0.15 0.14 0.09 0.1 0.14 0.19 0.16 0.26 0.16 0.65-0.28 1.54-1.02 2.33-0.36 0.38-0.76 0.72-1.13 0.95-0.2 0.12-0.37 0.2-0.52 0.26l-0.17 0.05-0.06-0.15c-0.32-0.85-0.11-1.68 0.38-2.38 0.5-0.71 1.26-1.22 1.95-1.41l0.25-0.05zm74.17 51.01c-5.67-8.74-13.38-15.51-22.35-18.91-0.47 18.91-14.06 17.51-13.91 36.11-14.06-18.45-8.87-40.72 7.66-45.33 12.88-3.58 29.38 11.1 28.6 28.13zm-46.1 72.21c15.31-26.1-9.07-22.5-11.88-43.45-7.82 22.51 10.16 18.91 11.88 43.45zm41.88-0.31c-4.06-20.32 5.94-20.79-6.56-38.45 5.47 16.57-7.19 22.51 6.56 38.45z"/></g></g></svg>