<svg xmlns:svg="http://www.w3.org/2000/svg" xmlns="http://www.w3.org/2000/svg" width="15" height="18" viewBox="0 0 15 18" version="1.1"><path d="m6.6552488 17.999914c0.3730777-0.0037 0.6572354-0.09884 0.4300381-0.03918 0.04214-0.0076-0.1698502 0.03763-0.4300381 0.03918zm-0.2881526-0.02088c0.09124 0.01559 0.1983305 0.02178 0.2881526 0.02088-0.086858 0.000387-0.1905982-0.0058-0.2881526-0.02088zm-1.711776-0.01482c0.3574845 0.000645 0.6759215-0.01276 0.9828891-0.01662-0.2979467 0.004-0.6212807 0.01778-0.9828891 0.01662zm-0.5976975-0.03492 0.2585125 0.02332C4.1188358 17.938057 4.055303 17.93084 4.0576227 17.929294Zm-0.3136688-0.05902 0.1496177 0.03338c-0.1350555-0.0268-0.1899539-0.04137-0.1496177-0.03338zm3.8754979 0.01495c0.116627-0.0054 1.0564736-0.143947 1.2652425-0.207093 0.063275-0.01869 0.1422721-0.0183 0.015464-0.0012 0.05129-0.01147 0.015851-0.007-0.015593 0.0023-0.2079956 0.06302-1.1438473 0.200908-1.2600877 0.206321l-0.021006 0.0019 0.01598-0.0023zm-4.1416138-0.11289 0.056703 0.02693c-0.07642-0.03364-0.1193333-0.05799-0.056703-0.02693zm5.8321262-0.128096c0.3232052-0.107478 0.6703801-0.189052 0.1449784-0.04214 0.1809331-0.05696 0.014047-0.0099-0.1469114 0.04356-0.054383 0.01778-0.1287408 0.01688-0.2225579 0.01637 0.095106-0.000773 0.1698502 0.000129 0.2244909-0.01778zM10.29891 17.356726c0.05387-0.01675 0.116112-0.03028 0.02577-0.0057 0.02397-0.0076-0.0049 0-0.0317 0.0082l-0.145751 0.04162 0.151679-0.0442zm0.273462-0.05116c-0.0259 0.0026-0.0616 0.0073-0.13119 0.01946 0.110699-0.02023 0.185315-0.02848 0.13119-0.01946zm0.268177-0.01985c0.01946-0.0028-0.06379 0.0013-0.245239 0.01714 0.268565-0.02487 0.444343-0.02913 0.245239-0.01714zm1.355194-0.02139c0.123973-0.0079 0.23712-0.03222 0.327071-0.06637 0.0053 0.0088-0.155674 0.0576-0.34086 0.06933-0.254131 0.0165-0.618832 0.0061-1.125032 0.01083 0.517411-0.0077 0.883659 0.0027 1.138821-0.01379zM1.4244285 17.217933c0.2792606 0.06405 0.6649675 0.04407 0.8937112 0.04639l0.015078 0.003c-0.3438243 0.0014-0.7342995 0.0116-0.908789-0.04936zM12.754135 17.086744c0.01173-0.0035-0.03428 0.02332-0.171267 0.08557l0.171267-0.08557zM2.7890295 15.443011c-0.00103 0.000129-0.00193 0.000258-0.00284 0.000258 0.00193-0.24408 0.080544-0.490736 0.2060626-0.720253 0.1376328-0.343438-0.1095392-0.751439-0.3295198-0.806338-0.063275-0.01572-0.1309316-0.01263-0.1697213-0.0549-0.044202-0.04794-0.046522-0.215728-0.010567-0.308772-0.00412 0.000387-0.00902-0.000644-0.012629-0.0035-0.093044-0.06469-0.1564478-0.123973-0.1863455-0.176939-0.031058-0.05683-0.025001-0.108121 0.021908-0.149359 0.052708-0.04485 0.157221-0.07694 0.3109626-0.09562 0.00232 0 0.020619-0.0023 0.025645-0.003 0.09008-0.01005 0.1965263-0.01572 0.3176638-0.01843l0.016624 0.01598c0.080028-0.112761 0.122555-0.194078 0.1594118-0.286735-0.031573-0.314571-0.030671-0.581589-0.017011-0.820385-0.1516796-0.02165-0.1050288-0.207995 0.014433-0.204-0.094333-0.645638 0.031186-0.290988 0.046393-0.491509 0.00838-0.110828 0.015851-0.219594 0.01598-0.329649C2.4011318 10.79713 1.8868129 10.444671 1.5565199 9.9130839L1.4018763 9.8635979c-0.059796-0.029253-0.013145-0.120622 0.056187-0.090209l1.6950229 0.5572328c0.1320914-0.06456 0.2634096-0.09975 0.3960165-0.116885l-0.030413-0.3537474-0.056058 0.00644c-0.010309 0.00129-0.01933-0.00644-0.020361-0.016624-0.00129-0.010052 0.00644-0.020233 0.016753-0.021392l0.056187-0.00593-0.013274-0.1578654c-0.00193-0.020748 0.013789-0.039563 0.034537-0.041238 0.021135-0.0018 0.039563 0.013789 0.042011 0.034924l0.013016 0.1545148 0.046135-0.00528c0.010567-0.0018 0.020233 0.0058 0.021521 0.016109 0.0003866 0.010696-0.0067 0.020361-0.017011 0.022037l-0.047682 0.00541 0.029898 0.3541334c0.014949-0.001 0.029511-0.0019 0.044202-0.003L4.1672908 8.5090487c-0.00232-0.00245-0.00296-0.0049-0.0049-0.00735C4.1362332 8.4617535 4.1380373 8.3202546 4.1123923 8.2587838 4.0662569 8.1493734 3.9488567 8.0755311 3.9117422 7.9582597 3.8908653 7.8894433 3.8949891 7.7592849 3.8686997 7.7002626 3.8465341 7.6500034 3.7652174 7.62075 3.7402166 7.5933008 3.6595442 7.5042518 3.6595442 7.3926507 3.6045169 7.3137824 3.5537422 7.241616 3.3878869 7.1448349 3.4439452 6.9672525c0.00722-0.023712 0.019202-0.048971 0.03531-0.075518 0.00232-0.014047 0.00735-0.024228 0.013145-0.033248l-0.1829949-0.3558092 0.055801-0.095364 0.2023254 0.394599 0.4074859-0.2547754 0.00709-0.010438c0.00619-0.00825 0.018557-0.010181 0.026934-0.00412 0.00168 0.00116 0.00296 0.00296 0.00477 0.00477L4.2754124 6.1980294 4.3084031 5.9012425 4.2773455 4.832784c-0.00438-0.061084 0.097941-0.070105 0.094719 0.021006l0.00361 0.090209 0.1413701 0.1180446c0.039434 0.030542 0.1899539-0.078482 0.2795183-0.048326 0.099874 0.033377 0.1818351 0.1505198 0.2158567 0.230419L5.7745534 4.2575097 5.748264 3.0030922l-0.05928-0.074616-0.00142 0.0001289-0.00103-0.00309-0.00399-0.00503 0.00232-0.0003866L5.6518695 2.8170044 5.4681013 2.8408453 5.4802151 2.7350432 5.6360185 2.7160993 6.9011322 2.1499748 6.889405 0.18883603c-0.05812-0.0502592-0.042398-0.12152411-0.00606-0.1610871 0.034279-0.03711447 0.1101835-0.03453708 0.1514218-0.0068301 0.047038 0.0314442 0.051548 0.12397264 0.013016 0.16263354l-0.00155 0.0291246 0.159283 0.1627624c0.1549013 0.0157221 0.2811936-0.13673073 0.430167-0.12629228 0.2411151 0.0172685 0.2322231 0.31276671 0.6596838 0.30142618 0.1484579-0.004253 0.2890547 0.0547696 0.1866033 0.3820986-0.040336 0.12822538 0.015722 0.23441398 0.1001318 0.23712018 0.089049 0.00296 0.080672 0.1139208 0.1003895 0.1924025 0.054383 0.2152123 0.2811936 0.2179186 0.1864744 0.3385406C8.6986065 1.7174882 8.4196036 1.6739302 8.2925381 1.6431304 7.9929161 1.5708345 8.1319665 1.4051081 7.8078592 1.4109072 7.4892934 1.4426092 7.4001156 1.2065199 7.1425051 1.1634774l-0.08557 0.065337 0.00889 0.9084023 1.3060942 0.2371202 0.2306768-0.028093 0.019201 0.082992-0.1662418 0.021779 0.025516 0.039821 0.0006443 0.00258 0.0002577-0.0001288c0.3894442 0.4532348 0.7292736 0.8988661 1.0040237 1.3359921l0.7955128-0.3889287 0.02461-1.9534068 0.127839 0.00348-0.0019 0.3235918 0.106833 0.088533c0.06276-0.00412 0.244465 0.025645 0.332097 0.013016 0.273719 0.0007732 0.124488 0.2991065 0.473338 0.2369913 0.09743-0.01714 0.26109 0.1144363 0.178871 0.2732037-0.03209 0.061986-0.06186 0.1399525-0.05516 0.1903406 0.01959 0.1429164 0.213537 0.1538704 0.133251 0.3694695-0.123844 0.020748-0.174489-0.091369-0.238666-0.1055443-0.07951-0.017526-0.09408-0.00451-0.201939-0.087245-0.08712-0.066755-0.111988-0.1900828-0.236218-0.236347-0.145881-0.053996-0.35117 0.1652109-0.468313-0.00915l-0.0299 0.011469-0.0072 0.8738654 1.05119 0.1362152 0.110312-0.017784 0.01753 0.082734-0.275523 0.046006 0.525531 0.2587704c0.0072 0.00412 0.01198 0.012629 0.01044 0.02049l0.385192 0.061471 0.05013-0.081961c0.0082-0.013531 0.02577-0.017913 0.03931-0.00992 0.01379 0.00889 0.0174 0.026032 0.009 0.039176l0.000644 0c0.563032 0.3744953 0.321659 0.4862253 0.524371 0.6922879 0.146009 0.1487156 0.293436 0.1654687 0.479008 0.4037487 0.181191 0.2011656 0.130803 0.3547782 0.27939 0.5812023 0.09214 0.1858301 0.213021 0.1537415 0.25877 0.2131504 0.121009 0.1570922 0.205547 0.2177898 0.300524 0.3320972 0.08054 0.097425 0.187892 0.1385349 0.329004 0.1194622 0.15168 0.00773 0.247946 0.2813225 0.155804 0.4211461-0.04536 0.059667-0.09201 0.018299-0.08712-0.03647 0.02668-0.209671-0.08673-0.2859618-0.28506-0.282869C14.113066 6.4341186 13.996825 6.1705801 13.861641 6.0493138 13.74089 5.9172223 13.630449 5.9592339 13.444876 5.7047162 13.370519 5.6039401 13.372581 5.4772612 13.245257 5.3749387 13.123218 5.2459402 12.966384 5.1809899 13.073217 5.3523865l0.185056 0.3264269c0.120622 0.2123773 0.161989 0.4141872 0.187763 0.5683153 0.03583 0.1431742 0.315344 0.2859618 0.364701 0.5511756 0.01804 0.1344111 0.05928 0.2509093 0.19614 0.2872506 0.107993 0.03763 0.248976 0.1715255 0.299107 0.2868632 0.01546 0.046006 0.0174 0.084667 0.06675 0.1074773 0.04987 0.014949 0.06521 0.025001 0.03595 0.071007-0.05258 0.019588-0.142143-0.046006-0.169077-0.096137C14.196187 7.3675211 14.083812 7.2480595 13.917055 7.2105585 13.794758 7.2039861 13.717694 7.0832352 13.687796 6.9816859 13.652614 6.7122194 13.409566 6.6408256 13.297063 6.4529336 13.142033 6.1942922 13.209818 5.8288177 12.908908 5.6360287 12.77643 5.5512324 12.661736 5.4199142 12.588924 5.2754513 12.46057 4.8896155 12.25425 4.6255615 12.032594 4.4564845c0.01894-0.00838 0.07255-0.032733 0.09047-0.042527l-0.02874-0.03995-0.02384 0.038274c-0.0085 0.013145-0.02603 0.017913-0.03879 0.00876-0.01392-0.0076-0.01804-0.025645-0.01018-0.039176l0.03634-0.057991-0.242532-0.3393139c-0.0046-0.00644-0.004-0.01366-0.0012-0.019717l-0.51651-0.2543888 0.03235 0.098456 0.000129 0.0006443 0.000387 0C12.15502 5.0907811 12.772693 6.3899163 12.246647 7.789827 11.731812 7.5067003 11.119423 7.3323397 10.416697 7.2581114l0 0.049743 0.960337 0.456843 0.82541 0.1184313 0.452075 0.03995 0.01198-0.046006c-0.06263-0.014949-0.07178-0.078739 0.01662-0.063404 0.07397 0.046651 0.104513 0.1308027 0.05155 0.2127639 0.04407 0.1293851 0.0094 0.1886652-0.09743 0.1826083-0.06456-0.032733-0.09369-0.065723 0.01237-0.097812l0.01018-0.079642-0.556588-0.070363c0.505298 0.6618747 0.987141 1.3120222 1.268463 1.9365247l1.003766-0.8875255 0.0061-0.084667 0.08596 0.00606-0.0015 0.048068 0.0674 0.00296 0.0015 0.070234-0.07578-0.00348-0.02126 0.3001375c0.0326 0.019073 0.05361 0.056316 0.05065 0.097683-0.0041 0.057218-0.05232 0.1005183-0.107606 0.096523-0.05529-0.00399-0.09691-0.05361-0.09279-0.1106991 0.0028-0.041367 0.02887-0.075389 0.06379-0.089564l0.01508-0.211604-0.955826 0.8565967c0.09626 0.2287434 0.163793 0.4543944 0.194206 0.6754064l0.46406 0.73881 0.384547 0.07191-0.02513 0.07346-0.141885-0.01392c-0.04601 0.104513-0.319597-0.0028-0.341634-0.0634-0.113663 0.102065-0.350783 0.02165-0.40246-0.05013-0.05322 0.159412-0.134668 0.315989-0.248589 0.469086-0.003 0.535711-0.100003 0.891005-0.303359 1.047968-0.186474 0.142917-0.448595 0.111859-0.779533-0.07526 0.001 0.303488 0.0097 0.671411 0.01315 0.722702 0.09214-0.0089 0.165984-0.03415 0.247172-0.07333-0.03505-0.0866 0.03157-0.126679 0.152839-0.09511 0.0134 0.06598-0.02113 0.122426-0.08415 0.117142-0.103225 0.120622-0.236347 0.193563-0.369599 0.203615-0.09382 0.01611-0.220496-0.06972-0.266502-0.118303 0.01083 0.03235 0.0241 0.06443 0.03711 0.09871 0.08042 0.29988 0.686747 0.539062 0.341376 1.407257l0.01211-0.02281c0.0028-0.000257 0.0058-0.000515 0.0086-0.000773-0.03286 0.06572-0.07204 0.135184-0.119076 0.208511-0.510968 0.244079-1.101062 0.460452-1.793221 0.643962C7.4697052 16.493685 8.3784942 16.17164 3.3533499 16.436854 2.9088783 16.141613 2.7620958 15.798047 2.7890295 15.443011Zm0.4511728 0.900026-0.06495-0.05696c-0.039821-0.03235 0.00206 0.0064 0.06495 0.05696zm-0.1110857-0.09962-0.068816-0.07371c-0.034022-0.03505-0.0005155 0.005 0.068816 0.07371zm-0.093431-0.102709-0.058507-0.07745c-0.036212-0.0509-0.010438-0.0099 0.058507 0.07745zm-0.090209-0.12771c-0.048713-0.08402-0.06727-0.126163-0.030413-0.0509l0.030413 0.0509zM13.356987 15.907844c0.07797-0.02822 0.367021-0.123973 0.60092-0.239698-0.08802 0.06727-0.494216 0.203743-0.608781 0.244466 0.0022-0.0021 0.0048-0.0037 0.0079-0.0048zm-1.120779-0.69551c0.02307-0.04034 0.04162-0.07578 0.0072-0.01302l-0.0072 0.01302zm-0.07384-1.624273c0.01327-0.0013 0.0084-0.44009 0.003-0.752986-0.04549-0.02693-0.09124-0.05619-0.139179-0.08918-0.04717 0.04059-0.137891 0.124746-0.191114 0.163149 0.07655 0.289313 0.09975 0.519216 0.05129 0.655689 0.07758 0.01392 0.201939 0.02977 0.276039 0.02333zm-9.6711543-0.06985 0.053352-0.02629-0.1190755-0.287251c-0.042914 0.01379-0.073842 0.03003-0.094333 0.04781-0.032089 0.02745-0.036857 0.05979-0.013531 0.101549 0.011856 0.02255 0.032862 0.04768 0.1735875 0.16418zM2.7050065 13.39656 2.6203391 13.165883c-0.061986 0.0071-0.1145651 0.01663-0.1577365 0.02797l0.1159827 0.280678c0.043043-0.02332 0.085312-0.04936 0.1264212-0.07797zm0.1511641-0.126163-0.04562-0.120751c-0.055285 0.0031-0.1061887 0.0067-0.1520663 0.01147l0.078997 0.21212c0.041109-0.03106 0.080544-0.06534 0.1186889-0.102838zm0.1018071-0.12539c-0.036083 0.000644-0.072425 0.0017-0.1076062 0.003l0.035181 0.09188c0.044331-0.04781 0.085312-0.09962 0.072425-0.09485zm9.9975813-0.252843c0.17217-0.131833 0.268693-0.437512 0.280162-0.927475-0.148071 0.180933-0.342922 0.356711-0.590867 0.526819-0.121009 0.118947-0.26792 0.163536-0.431842 0.152453-0.001 0.04575-0.0017 0.09807-0.0017 0.152067 0.338154 0.19833 0.581718 0.220496 0.744223 0.09614zm-5.2822397-0.15155-0.0125-0.09975-0.1787422-0.003 0.014304 0.163536 0.1189467 0c0.019073-0.02023 0.03879-0.04046 0.057991-0.06083zm0.00683 0.06083-0.0003866-0.01198c-0.00412 0.0037-0.0076 0.008-0.011212 0.01198l0.011598 0zm0.1991036 0-0.025645-0.157479-0.039434 0c-0.027449 0.03093-0.055543 0.06134-0.084152 0.09201l0.00838 0.06547 0.1408545 0zm0.2269396 0-0.030284-0.152839-0.1637934-0.003 0.02513 0.155803 0.1689482 0zm0.2199805 0-0.035439-0.148716-0.1563189-0.0028 0.030413 0.151551 0.1613448 0zm0.059022 0 0.3113492-0.004c0.2506515-0.03711 0.3099315-0.320241 0.3408603-0.638678 0 0-0.0005155 0 0-0.000516l0 0.000516c0.00786-0.0028 0.021521-0.0095 0.023454-0.01791l0.132478-0.66239C8.961114 11.578725 8.7148441 11.691228 8.4551717 11.814298 8.3822314 11.92126 8.307487 12.027835 8.2287476 12.133895l0.1564478 0.667545zm3.7771706-0.162891c-0.0066-0.000645-0.01314-0.0013-0.01972-0.0023-0.02333 0.02371-0.04781 0.04704-0.07217 0.07049 0.03157 0.02191 0.06302 0.04162 0.09356 0.06083-0.000515-0.04833-0.0017-0.09266-0.0017-0.128998zm-4.7292598 0.09678-0.013145-0.157221c-0.025516 0.01624-0.051161 0.03106-0.07642 0.04665l0.089564 0.11057zm0.330293-0.09201-0.044718-0.0014 0.00477 0.04446c0.01366-0.01443 0.026934-0.02951 0.03995-0.04304zm4.1641658-0.0116 0.556331-0.640869c0.03737-0.04124 0.09665 0.009 0.0518 0.06456l-0.15954 0.224105 0.03763 0.02681c-0.05516 0.09111-0.131705 0.171783-0.198331 0.24962-0.000515 0.0098-0.000515 0.02049-0.0012 0.03067 0.163149 0.01186 0.304648-0.03583 0.418698-0.164824 0.100389-0.440992 0.146911-0.841004 0.06882-1.142816-0.06998 0.0616-0.369211 0.0036-0.382872-0.09266-0.01495 0.0068-0.02912 0.01211-0.0442 0.01611 0.01791 0.160829 0.05786 0.311478 0.136731 0.442152-0.226424 0.273075-0.388929 0.610456-0.483906 0.987142zm-3.6450787-0.01753-0.048326-0.205804-0.1491022-0.0059 0.040981 0.209155 0.1564478 0.0026zm-0.2144392-0.0044-0.042398-0.209671-0.00361 0c-0.040465 0.05026-0.082477 0.10026-0.1252614 0.150004l0.00928 0.05657 0.1619892 0.0031zM7.416482 12.535582 7.1428917 9.2495339 7.1779442 12.57347c0.039563 0.01237 0.078482 0.0232 0.1190756 0.03376 0.039434-0.02307 0.080028-0.04704 0.1194622-0.07165zm0.4233369 0.02165-0.026805-0.16534-0.1005183-0.0041c-0.0076 0.0059-0.015207 0.01108-0.023197 0.01598l0.023841 0.199619 0.084281 0.0022c0.013789-0.01598 0.028738-0.03209 0.042398-0.04833zm-0.1837681 0.04536-0.019846-0.162505c-0.05361 0.03647-0.1076062 0.07062-0.1618603 0.104643l0.0049 0.05503 0.1768092 0.0028zm-0.025774-0.204903-0.00116-0.01302-0.1685615-0.0066 0.010696 0.124231c0.053352-0.03415 0.1065753-0.06869 0.1590252-0.104643zm0.3440821 0-0.1033535-0.004 0.018042 0.106704c0.02848-0.03389 0.057218-0.06817 0.085312-0.102709zm-1.0095651 0.101163-0.00335-0.485581-0.2367336-0.396145-0.05013 0.756722c0.09575 0.04433 0.1917581 0.0866 0.2902145 0.125004zm1.2603455-0.129127-0.041238-0.17565c-0.03647 0.04768-0.073971 0.09627-0.11173 0.144077l0.00477 0.02552 0.1482002 0.0061zM8.0155972 12.34769 7.9832509 12.188794c-0.042398 0.03338-0.086085 0.06624-0.1296429 0.09846l0.01134 0.06817 0.1398236 0.0053c0.00296-0.0041 0.00709-0.0084 0.010825-0.01302zm-0.2091555 0.0064-0.00399-0.0299c-0.012758 0.0098-0.025645 0.01856-0.038403 0.02758l0.042398 0.0023zm-0.010825-0.07165-0.037501-0.229388-0.1144362-0.0077 0.038661 0.303488 0.019073 0.000644c0.031702-0.02191 0.062631-0.0442 0.094204-0.06701zm-1.1764513 0.06443 0.025387-0.385836-0.1342822-0.02732-0.035181 0.342278c0.04794 0.02436 0.09575 0.04768 0.1440763 0.07088zm1.0053124-0.000516-0.037888-0.305163-0.1543859-0.01005 0.025645 0.309158 0.1666285 0.0061zm0.5482116-0.201423-0.015722-0.06676-0.032862-0.0014c-0.029769 0.02423-0.059667 0.04846-0.089951 0.07243l0.027965 0.139823c0.037501-0.04846 0.073971-0.09549 0.1105702-0.144076zm-1.7523699 0.103998 0.033764-0.326556-0.1192044-0.02397-0.042012 0.286091c0.043042 0.02165 0.084925 0.04317 0.1274521 0.06444zm1.5550704-0.102065-0.016109-0.08054-0.1426587-0.0098 0.030413 0.187763c0.043043-0.03106 0.085956-0.06379 0.1283542-0.09743zm-1.7445088 0.0054-0.040594-0.284286-0.053867-0.01082-0.042269 0.226939c0.046007 0.02281 0.091755 0.04562 0.1367308 0.06817zm2.9683842-0.03067 0.026934-0.13222-0.094977-0.0086-0.030413 0.154772c0.033248-0.0043 0.066239-0.0084 0.098456-0.01392zm0.1774535-0.02732 0.0183-0.08943-0.1310604-0.01276-0.02397 0.123715c0.045362-0.0067 0.091369-0.01366 0.1367307-0.02152zm-1.3086716-0.02152-0.049486-0.0028 0.00709 0.0375c0.01366-0.01121 0.028738-0.02333 0.042398-0.03467zm1.4704031-0.0076 0.00838-0.04717-0.1140496-0.01031-0.016109 0.07951c0.040723-0.0072 0.081317-0.01495 0.1217819-0.02204zm-1.1621468-0.204388 0.00593-0.0095-0.028609 0.02693c-0.050775 0.04652-0.1010338 0.0906-0.1527105 0.134411l0.016495 0.07152c0.055027-0.07346 0.1081217-0.148715 0.1588963-0.223331zm1.2847019 0.179773 0.00232-0.01276-0.078224-0.0063-0.00657 0.03595c0.027578-0.0061 0.055543-0.01173 0.082477-0.01688zm-3.4062834 0.01018 0.023841-0.164438-0.04897-0.0099 0.02513 0.174361zm-0.2113463-0.0031 0.036986-0.20181-0.056703-0.01121 0.019717 0.213021zm-0.039563-0.0082-0.019588-0.21328-0.094977-0.01907-0.011985 0.04961 0.00722 0.125777c0.040078 0.01856 0.079899 0.03763 0.1193333 0.05696zm2.1375614-0.0268-0.053223-0.227713-0.1288697-0.009 0.050904 0.255291 0.100905 0.0066c0.010696-0.0086 0.020361-0.01624 0.030284-0.02513zm1.8570121-0.0509-0.2186919-0.330679-0.077451 0.400527c0.099874-0.02088 0.197686-0.0442 0.2961425-0.06985zm-2.0473526 0.06572-0.050775-0.255549-0.1308027-0.0091 0.040723 0.255291 0.1408546 0.0094zm-0.1989748-0.01302-0.041238-0.255678-0.1032246-0.0067 0.032088 0.255033 0.1123744 0.0073zm-0.170108-0.01147-0.031702-0.255033-0.1427877-0.0094 0.021006 0.25426 0.1534838 0.01018zm2.0892353-0.01186 0.039821-0.206706-0.081059-0.0071-0.037759 0.206449 0.078997 0.0073zm-0.1170137-0.01082 0.038017-0.207093-0.1097969-0.01044-0.041754 0.207481 0.1135342 0.01005zm-1.2620208-0.09807c0.3415047-0.494344 0.565609-0.984307 0.6850712-1.470919L7.1937952 7.7027111 8.1911177 11.971262c0.033506-0.02912 0.067399-0.05889 0.1010338-0.08905zm1.1102123 0.08441 0.041754-0.207867-0.1306739-0.0125-0.041754 0.208511 0.1306739 0.01186zm-0.1684327-0.01495 0.04111-0.20864-0.094204-0.0089-0.041754 0.209156 0.094848 0.0084zm0.9413929-0.03711 0.001-0.123586-0.3324837-0.485066-0.048455 0.249621 0.2574817 0.392408c0.04111-0.0107 0.0817-0.02191 0.122426-0.03338zm-4.3768008 0.02925 0.036986-0.159411-0.1099259-2.0666836-0.068559-0.1311893 0.020748 2.2288009 0.091369 0.115339c0.00954 0.0041 0.019073 0.0084 0.029382 0.01314zm0.8487357-0.02075 0.020104-0.314313-0.1210087-0.02088-0.031702 0.307741 0.1326069 0.02745zm-0.1895673-0.03892 0.032346-0.306066-0.1069618-0.01894-0.043043 0.301169 0.117658 0.02384zm4.4051524-0.201939-0.132092-0.778888c-0.108637 0.03196-0.222944 0.06817-0.342793 0.10825l-0.0067 0.841004c0.16302-0.0509 0.323849-0.107735 0.481586-0.170366zm-4.5788687 0.166113 0.043042-0.298591-0.1296429-0.02333-0.010696 0.05799 0.03647 0.25194 0.060827 0.01198zm0.6768235-0.01443-0.02165-3.4653052-0.046522 0.7078811c0 0.00103 0 0.00103 0 0.0018l-0.0005155 0.0005155-0.1565767 2.3745524 0.2252642 0.380552zm-0.777213-0.0053-0.018428-0.12771-0.02165 0.119462 0.040079 0.0082zm-0.096523-0.02049 0.053094-0.282998-0.00206-0.0089-0.145365-0.02577 0.027965 0.304777 0.066368 0.01289zm-0.1065752-0.02139-0.023197-0.269982-0.059667 0.253229 0.082863 0.01675zm3.7383805-0.04008 0.031186-0.161216-0.029382-0.04472-0.046006-0.0059-0.038274 0.20413 0.082477 0.0077zm-1.6392223-0.000387-0.062373-0.265214-0.1189467-0.0116 0.053223 0.267791 0.1280965 0.009zm1.5193735-0.01083 0.037372-0.205934-0.1043844-0.01379-0.041883 0.209413 0.1088948 0.01031zm-1.7064923-0.0023-0.053223-0.268306-0.1194621-0.01083 0.043558 0.270626 0.1291274 0.0085zm1.5589366-0.0116 0.042398-0.210702-0.1301584-0.01675-0.043171 0.215084 0.1309316 0.01237zm-1.7465708-0.001-0.044074-0.271142-0.090853-0.0085 0.033377 0.273075 0.1015493 0.0066zm-0.1594118-0.01134-0.034666-0.273462-0.1297717-0.01147 0.023325 0.276039 0.1411123 0.0089zm1.7375499-0.0036 0.042914-0.216887-0.093946-0.0125-0.044073 0.220625 0.095106 0.0088zm0.8946135-0.007 0.0077-0.616512c-0.103225 0.03699-0.2103153 0.07629-0.3219165 0.119462l-0.00541 0.03093 0.319597 0.466121zm0.829534-0.07539-0.02629-0.137504-0.113019 0 0.03119 0.182866c0.0366-0.01495 0.07243-0.0299 0.108122-0.04536zM5.866953 11.651149 5.9406664 11.33529 5.808575 9.8754539 5.7684965 9.7983899 5.866953 11.651149ZM5.5303454 11.628984 5.5242885 9.3343301 5.50702 9.3039169 5.3954188 11.459005 5.5303454 11.628984Zm5.5867586-0.0531-0.01791-0.09021-0.07951 0 0.02333 0.12307c0.02526-0.01083 0.04974-0.02204 0.0741-0.03286zm-4.4465197-0.0054 0.00284-0.05077-0.099745-0.190469-0.023325 0.220496 0.1202354 0.02075zm4.5516767-0.04175-0.0084-0.04304-0.07578 0 0.01482 0.07487c0.0232-0.01083 0.04652-0.02165 0.06933-0.03183zm-4.7280993 0.0107 0.030929-0.298591-0.093431-0.01134-0.041754 0.292276 0.1042556 0.01766zm4.8199843-0.05374-0.06147 0 0.0055 0.02693c0.01882-0.0095 0.03737-0.01856 0.05593-0.02693zm-4.9812003 0.02642 0.041238-0.288539-0.117658-0.01379-0.051806 0.278874 0.1282253 0.02345zm3.4320574-0.0041 0.029253-0.148716-0.08557-0.0077-0.010696 0.05722 0.064692 0.09846 0.00232 0.000773zm-0.072425-0.0089-0.00825-0.01443-0.00258 0.01276 0.010825 0.0017zm-0.04897-0.0067 0.010181-0.05322-0.066239-0.100261-0.019717-0.0026-0.028094 0.142143 0.1038689 0.01392zm-3.5113121-0.01624-0.041754-0.285317-0.056058-0.0062-0.050259 0.214697 0.00541 0.05181 0.1426588 0.025zm3.3689112-0.0028 0.028351-0.137375c-0.048326 0.01959-0.096781 0.03995-0.1461382 0.06031l-0.011985 0.06031 0.1297718 0.01675zm-0.1675306-0.02217 0.0067-0.03647c-0.022295 0.0095-0.043816 0.01907-0.066626 0.02874l0.059924 0.0077zm2.6197917-0.319082c-0.01804-0.0143-0.0317-0.02912-0.04188-0.04356-0.03067 0.0071-0.288023 0.09781-0.440347-0.09858-0.03415 0.03286-0.09846 0.04678-0.168562 0.04188l0.08493 0.417537c0.196527-0.09678 0.385321-0.203098 0.565867-0.317277zm-0.980183 0.314958-0.02758-0.141499-0.108122 0.001 0.02397 0.140468 0.11173 0zm0.118818 0-0.02887-0.142788-0.07861 0.0013 0.02796 0.141499 0.07951 0zm0.11405 0-0.02758-0.143432-0.07642 0.000644 0.02809 0.142788 0.07591 0zm0.142658 0-0.02912-0.144721-0.102709 0.000644 0.02861 0.144077 0.103224 0zm-3.3404305-0.0054-0.069976-0.300524-0.1067041-0.0048 0.058378 0.294983 0.1183024 0.01031zm-0.1771958-0.01559-0.05812-0.292663-0.105802-0.0041 0.045878 0.286091 0.1180447 0.0107zM5.3594642 11.414673 5.4715808 9.2419306 5.4616578 9.2220847 5.250827 11.282067c0.012243 0.01379 0.025001 0.02745 0.037501 0.04188l0.071136 0.09072zm2.2946535-0.0046-0.045878-0.2839-0.078224-0.0027 0.033893 0.278616 0.090209 0.008zm-1.4924398-0.0019 0.03763-0.204774-0.069461-0.0079 0.031831 0.212635zm1.3450129-0.01147-0.035439-0.276941-0.1158538-0.0049 0.02281 0.270626 0.1284831 0.01121zm6.4905212-0.0088-0.379392-0.603884c0.01314 0.176294 0.0013 0.348077-0.04047 0.517927l0.419858 0.08596zm-4.3296344-0.025 0.00296-0.01624-0.014433-0.000773 0.011469 0.01701zm-2.9826888-0.0067 0.0058-0.09678-0.06044-0.0066 0.054641 0.103354zm3.1172288-0.03415 0.01134-0.06031-0.022166-0.03222c-0.021392 0.009-0.043558 0.0174-0.065208 0.02629l-0.010052 0.05735 0.086085 0.0089zm-0.1244882-0.0125 0.0067-0.03634c-0.019717 0.0071-0.040078 0.01547-0.06044 0.02384l0.00541 0.0072 0.048326 0.0053zm1.1538996-0.04098 0.106961-0.0014-0.03389-0.174361-0.102709-0.0013 0.02964 0.177067zm0.224233-0.0018-0.03402-0.17333-0.07835 0 0.03351 0.17333 0.07887 0zm0.115209-0.000902-0.03402-0.171268-0.07603-0.000773 0.03338 0.172041 0.07668 0zm0.03879-0.000258 0.101549-0.0014-0.03428-0.168562-0.100905-0.001 0.03364 0.17101zm-5.9942443-0.02036 0.094333-0.918841-0.024485 0.0125-0.013531-0.02629-0.1180446 0.869226c0.021135 0.02023 0.041496 0.04175 0.061729 0.0634zm1.4777487-0.02346 0.012372-0.192917-0.099745-0.01418-0.016753 0.159154 0.020361 0.03776 0.083765 0.01018zm-0.7252786-0.0049 0.078224-0.333772-0.1122455-0.769094-0.079255-0.1505201 0.1132764 1.2533861zm0.5376443-0.01714-0.055285-0.104127-0.013918 0.09704 0.069203 0.0071zm-0.1260345-0.01379 0.025516-0.176294-0.013531-0.02552-0.091369-0.0134-0.037114 0.201424 0.1164982 0.01379zm-0.173072-0.02023 0.036857-0.202712-0.1498754-0.02204 0.030929 0.215857 0.08209 0.0089zm-0.1213952-0.01379-0.016238-0.114178-0.025516 0.10941 0.041754 0.0048zm-0.9653628-0.0031 0.1213952-0.895257-0.1855723-0.358387-0.090338 0.681463 0.071007 0.494602c0.028094 0.02526 0.055929 0.05077 0.083508 0.07758zM12.428095 10.867622 12.2634 11.016208c0 0.0048 0 0.01018 0.000386 0.01495l0.374109 0.07719c-0.04897-0.09626-0.117658-0.177453-0.2098-0.240728zm-4.4992271 0.235316-0.060311-0.259286-0.096137-0.003 0.051419 0.257481 0.1050288 0.0048zm-0.1637934-0.0079-0.051934-0.257869-0.094204-0.0035 0.041883 0.256451 0.1042556 0.0049zm-0.1628913-0.0072-0.041883-0.257353-0.066755-0.0023 0.031702 0.256193 0.076935 0.0035zm-1.060082-0.0058 0.00722-0.07539-0.050388-0.0072 0.043171 0.08261zm0.9251555 0-0.032346-0.256322-0.103869-0.0041 0.021521 0.255033 0.114694 0.0054zm3.8021713-0.02461-0.0066-0.03041c-0.03647-0.0061-0.07346-0.01662-0.106188-0.03338l0.0125 0.06315 0.100261 0.000645zm-0.139695-0.000645-0.01791-0.09124c-0.02603-0.02101-0.0473-0.04665-0.05799-0.07771l-0.0348-0.0071 0.03428 0.174876 0.07642 0.0012zm-0.115854-0.0012-0.03595-0.182092-0.08042-0.01675 0.03853 0.197686 0.07784 0.0012zm-0.117271-0.0017-0.03621-0.18699c-0.0299 0.0084-0.06095 0.01675-0.09253 0.02552l0.02732 0.16083 0.101421 0.000644zm-5.9040358-0.02088-0.045878-0.316633-0.032862 0.250137c0.025774 0.02165 0.051806 0.04381 0.078739 0.0665zm7.1304888-0.03054 0.212377-0.188665c-0.232223-0.11289-0.5803-0.136215-1.084567-0.0384l0.0097 0.04897 0.862525 0.178098zm-5.4138158-0.01263 0.015464-0.239955-0.08892-0.01314-0.025645 0.240213 0.099101 0.01289zm-0.1558034-0.02126 0.025645-0.241501-0.073456-0.01005-0.033506 0.229903 0.00412 0.01018 0.077193 0.01147zM3.135689 10.442867c-0.00219 0.0018-0.00477 0.0026-0.00709 0.003-0.64074 0.133123-1.0278645-0.108637-1.4250409-0.433002l-0.080157-0.06611 0.00245 0.00412C1.9497013 10.438099 2.442499 10.766072 3.1954845 10.951258 3.1931648 10.788753 3.1770561 10.622511 3.135689 10.442867Zm3.2339846 0.498726-0.047295-0.08905-0.015078 0.08067 0.062373 0.0084zm-1.5045535-0.0143-0.191887-1.6157678-0.041883 0 0.1380194 1.5405078c0.032089 0.025 0.064048 0.04949 0.09575 0.07526zm1.3854779-0.0024 0.028738-0.154-0.049744-0.09575-0.073456-0.01121-0.056187 0.23944 0.1506486 0.02152zm0.1757783-0.06431 0.022552-0.152711-0.096781-0.01405-0.00348 0.01727 0.077708 0.149489zM4.7280027 10.820584 4.5932051 9.309716c-0.019202-0.0003866-0.036341-0.00206-0.044331-0.012887-0.010696-0.017011-0.011856-0.057605-0.01482-0.089049l0.055929 1.5080329c0.04678 0.03467 0.092013 0.06933 0.1380194 0.104771zm6.4925833-0.0032-0.0073-0.03389c-0.02577 0.0048-0.05258 0.01083-0.079 0.01598l0.08634 0.01791zm-3.36105-0.01121-0.044073-0.191243-0.089049-0.0046 0.038017 0.191114 0.095106 0.0048zm-0.1539993-0.0067-0.038274-0.192789-0.085312-0.0048 0.030929 0.193434 0.092657 0.0041zm-0.1510352-0.0067-0.031186-0.195108-0.059151-0.0031 0.024614 0.195495 0.065724 0.0027zm-0.1237149-0.0059-0.024614-0.195753-0.094719-0.0054 0.016624 0.197815 0.1027092 0.0034zm-1.3604773-0.0059 0.06611-0.282869-0.1491022-0.28274 0.082992 0.565609zm-1.1850855-0.0071 0.033893-0.252326-0.1768092-1.2310924-0.013016-0.026418c-0.00309 0.015464-0.00889 0.026418-0.019588 0.034924l0.1755206 1.474913zm1.8419343-0.06276 0.01482-0.227455-0.079255-0.01147-0.023325 0.225908 0.08776 0.01302zm-0.1445918-0.02126 0.023325-0.225908-0.062631-0.009-0.032991 0.223847 0.072296 0.01108zm-0.1288697-0.0192 0.032346-0.224105-0.086085-0.01186-0.041367 0.221527 0.095106 0.01443zm-0.2467854-0.0366-0.030413-0.05851-0.011727 0.05206 0.04214 0.0064zm0.099358-0.0059 0.036857-0.202454-0.1273233-0.01791-0.0076 0.03338 0.09807 0.18699zm-1.8612648-0.0241-0.05129-1.7499212c-0.00593-0.01598-0.01134-0.030413-0.016753-0.044073-0.00425-0.013145-0.023325-0.041109-0.04794-0.075775l-0.2233311 1.573628c0.1463959 0.07436 0.2407285 0.190211 0.3393138 0.296142zm3.3607924-0.02732-0.059022-0.253229-0.078868-0.0079 0.050775 0.255677 0.087116 0.0054zm-0.1462671-0.0089-0.051934-0.256966-0.074229-0.007 0.042527 0.259028 0.083636 0.0049zm-0.1420143-0.0077-0.042656-0.261606-0.047682-0.0044 0.032346 0.262378 0.057991 0.0036zm-0.1159828-0.0067-0.033635-0.265084-0.081703-0.0072 0.022166 0.266502 0.093173 0.0058zM3.1088841 10.411294 1.6956992 9.9578017c0.404393 0.3322263 0.7795327 0.5812023 1.4131849 0.4534923zm3.6361869 0.03338 0.013274-0.197815-0.071136-0.0089-0.020877 0.196011 0.078739 0.0107zm-0.1349266-0.01907 0.019717-0.194078-0.053867-0.0072-0.027578 0.192789 0.061729 0.0085zm-0.1183023-0.01662 0.027578-0.191758-0.077064-0.0098-0.03531 0.189439 0.084796 0.01211zm-0.1414989-0.02101 0.034666-0.187506-0.1177869-0.01559-0.042785 0.185701 0.1259057 0.0174zm-1.4126695-0.0066 0.074744-0.5685727-0.2161144-0.4201152 0.14137 0.9886879zm1.2298034-0.01856 0.609167-2.6065181C6.6245778 7.7576096 6.4738003 7.7323511 6.3616837 7.660313L5.7697852 8.7221992 5.9472388 9.9400176 6.1674771 10.362839ZM9.034312 10.128167 7.3287218 7.6445909c-0.024614 0.011469-0.053996 0.02281-0.087374 0.03415l1.7524988 2.6601276c0.015722-0.07023 0.029253-0.14021 0.040465-0.210702zm-1.2965579 0.155933-0.052579-0.225393-0.070492-0.0064 0.045362 0.22462 0.077708 0.0072zm-0.1372462-0.01276-0.045491-0.226167-0.064435-0.0066 0.036986 0.226295 0.07294 0.0064zm-0.1320914-0.01237-0.036212-0.226424-0.037759-0.0035 0.027707 0.225779 0.046264 0.0041zM4.0554319 10.254846 4.280825 8.666012c-0.00309-0.00374-0.00619-0.00773-0.00851-0.011469L3.9398358 10.206391c0.025645 0.0017 0.05129 0.0043 0.077579 0.0067 0.012372 0.01495 0.025001 0.02861 0.038017 0.04175zm3.3083424-0.0057-0.027965-0.226939-0.071523-0.0071 0.018299 0.227197 0.081188 0.0068zm-2.0430999-0.02745 0.1072196-1.0577626-0.0003866-0.00103-0.1356998 1.0022195 0.028867 0.05657zm1.4393455-0.01302 0.017397-0.2586415-0.059796-0.00773-0.026934 0.2581257 0.069332 0.0082zm-2.8784332-0.0054 0.3453707-1.6107417c-0.00593-0.00786-0.012371-0.016495-0.017913-0.023712L3.7288761 10.200463c0.050775-0.0012 0.1020648 0 0.1527106 0.0028zm2.753043-0.0107 0.026161-0.2585124-0.041625-0.00528-0.037759 0.257353 0.053223 0.0064zm-0.109797-0.01366 0.036986-0.2579971-0.065079-0.00838-0.047166 0.2567086 0.07526 0.0097zM6.3919681 10.162189 6.4392632 9.9048362 6.336683 9.8910472 6.2767586 10.148013 6.3919681 10.162189ZM5.2613944 10.105486 5.3964498 9.1075195 5.2050783 8.7675613 5.075822 9.7436203 5.2613944 10.105486ZM8.8545388 8.2435772 8.6044027 8.8810955c0 0.0005155 0 0.00129 0 0.00129l0.045878 0.5386752c0.00129 0.012371-0.00644 0.023325-0.017655 0.027449L9.0459103 10.049943C9.1305776 9.4495396 9.0581529 8.8505534 8.8545388 8.2435772ZM7.6760256 10.01953 7.629117 9.8181069l-0.06276-0.00838 0.040723 0.2027116 0.068945 0.0071zm-0.1287408-0.01314-0.040594-0.2037434-0.055156-0.00631 0.032346 0.204001 0.063404 0.0061zM7.425374 9.9934986 7.3919968 9.788338l-0.028223-0.00361 0.025258 0.2047739 0.036341 0.00399zm-0.094977-0.00979-0.025001-0.206707-0.0616-0.00773 0.017397 0.2070936 0.069203 0.00735zm-0.5506602-0.071909 0.016109-0.2516825-0.047811-0.00747-0.026161 0.2515536 0.057862 0.0076zm-0.1140496-0.01598 0.025645-0.2519402-0.031058-0.00503-0.036341 0.252198 0.041754 0.00477zm-0.097941-0.012629 0.036341-0.2531-0.053739-0.00851-0.046522 0.2532289 0.063919 0.00838zm-0.1213952-0.015851 0.047811-0.2547753-0.089436-0.01366-0.05928 0.2546465 0.100905 0.013789zM5.8938867 9.8371796 5.7626974 8.938958l0.070492 0.7824967 0.060698 0.1157249zm1.7255651-0.058378-0.052579-0.2252642-0.053094-0.00541 0.044847 0.2229446 0.060827 0.00773zM7.4981854 9.7625641 7.454112 9.541166l-0.044202-0.0049 0.035181 0.2197228 0.053094 0.00657zm-0.1122455-0.013531-0.035181-0.2193362-0.019073-0.00309 0.02732 0.2186919 0.026934 0.00374zm-0.085827-0.010825-0.027063-0.2174031-0.050646-0.00606 0.017913 0.2150835 0.059795 0.00838zM5.0326507 9.6604993 5.1616492 8.6904972 4.6310927 7.7474289c-0.0125 0.00515-0.025258 0.00954-0.04897 0.015078-0.00876 0.00322-0.016367 0.00528-0.018944 0.00593l0.1935623 1.352745 0.27591 0.5393196zm0.7544031-0.028094-0.067528-0.743578 0.037114 0.6845557 0.030413 0.059022zm1.0117558-0.010825 0.016109-0.2381512-0.038274-0.0067-0.024356 0.2377645 0.046522 0.00709zm-0.1033534-0.015336 0.02513-0.2395688-0.020361-0.00296-0.033893 0.2371202 0.029125 0.00541zm-0.085956-0.013918 0.034279-0.2389243-0.041883-0.0076-0.04446 0.2381512 0.052063 0.00838zm-0.1086372-0.016495 0.044847-0.2395687-0.076033-0.013789-0.056187 0.239311 0.087374 0.014047zm1.0564737-0.061084-0.046522-0.2032275-0.045491-0.00477 0.040594 0.2020677 0.051419 0.00593zm-0.1104413-0.012629-0.040723-0.2018099-0.035053-0.00412 0.032733 0.2000058 0.043043 0.00593zm-1.7334261-0.010696-0.032089-0.6103268-0.030542 0.055543 0.00361 0.4418941 0.059022 0.1128899zm1.6305881-0.00168-0.032604-0.2001346-0.00967-0.00116 0.02513 0.2000058 0.01714 0.00129zm-0.075775-0.00838-0.024485-0.1994903-0.04111-0.0049 0.016624 0.1994903 0.048971 0.0049zM8.5944798 9.3923215 8.553757 8.9126686 8.2752696 8.9276174 8.5944798 9.3923215Zm-1.7771129-0.047166 0.016624-0.2543887-0.02732-0.00296-0.025645 0.2506516 0.036341 0.0067zm-0.093173-0.016238 0.025516-0.2478164-0.00876-0.0006443-0.03531 0.2449812 0.018557 0.00348zm-0.07526-0.01366 0.035955-0.241244-0.032346-0.00374-0.043687 0.2376357 0.040078 0.00735zm-0.096137-0.017269 0.042914-0.2341562-0.06379-0.00773-0.05361 0.2286148 0.074487 0.013274zM7.5012783 9.272215 7.2079709 8.0162511 7.4578492 9.2675757 7.5012783 9.272215ZM7.3977959 9.2608744 7.2265281 8.401958l0.1378906 0.8546637 0.033377 0.00425zm-0.092399-0.010567-0.03531-0.2198517 0.02732 0.2198517 0.00799 0zm-0.066755-0.0067-0.1052866-0.8464161 0.00116 0.059151 0.065079 0.7818524 0.039048 0.00541zM5.5236442 9.1271077 5.5229998 8.990377l-0.00644 0.1241015 0.00709 0.012629zm1.3127954-0.073971 0.045491-0.6885507-0.071136 0.6854578 0.025645 0.00309zm-1.3551936-0.0003866 0.00425-0.072038-0.0067 0.067012 0.00245 0.00503zm1.2720726-0.00915 0.01933-0.1820928-0.026418 0.1808042 0.00709 0.00129zm-0.06379-0.00786 0.1081216-0.7460266-0.1378905 0.7424182 0.029769 0.00361zm-0.087116-0.010052 0.2359603-1.2711706-0.00232 0-0.2957559 1.263825 0.062115 0.00735zM4.7032598 9.017053 4.5441057 7.9092892 4.668465 8.9484943 4.7032598 9.017053Zm0.7153556-0.075647 0.077064-0.565609C5.4113987 8.3608486 5.3294375 8.3087852 5.2747968 8.2444793L5.2275016 8.6002884 5.4186154 8.9414065ZM8.2556814 8.8750386 8.5554323 8.8595742 8.827605 8.1659976C8.7642011 7.9875131 8.689199 7.8077399 8.6038873 7.6274512l-0.0616 0C8.2831306 7.8001366 7.574734 7.7403411 7.4140335 7.6087651l-0.023325-0.0005155c-0.004 0.00374-0.00967 0.0067-0.01482 0.010825L8.2424078 8.88058c0.00374-0.00322 0.00838-0.0049 0.013274-0.00554zM5.6498076 8.8589299 5.6777723 8.8093151 5.6544469 8.3823698c-0.00296 0.0005155-0.00631 0.00129-0.00902 0.00129l0.00438 0.4752714zm-1.031473-0.00786-0.1113434-0.9363671 0.077193 0.8707725 0.03415 0.065595zm-0.080157-0.1564477-0.03995-0.4407344 0.015335 0.3922794 0.024614 0.048455zM5.7607644 8.660084 6.3299817 7.6382763c-0.013789-0.010825-0.026934-0.023325-0.03995-0.035955-0.010696 0.00232-0.037114 0.00889-0.074873 0.017913l-0.2765544 0.408388c0.00348 0.010567 0.00567 0.021392 0.00644 0.032733-0.0006443 0.00606-0.0009021 0.025645 0.0005155 0.025387 0.012758 0.05245-0.09923 0.2119906-0.2283571 0.2741058L5.7607644 8.660084ZM5.1838148 8.5233532 5.2285326 8.1783691c-0.021521-0.04214-0.030671-0.085183-0.023197-0.1241015-0.00129-0.00747 0.00193-0.013531 0.00309-0.017011 0.010954-0.032089 0.026289-0.06044 0.05013-0.082992L5.309205 7.574228 5.2639717 7.5737126 5.133169 8.4330156l0.050646 0.090338zm-0.8032447-0.1355709-0.0006444-0.013145-0.00103 0.00954 0.00168 0.00361zm0.7100719-0.029382 0.1188179-0.7859762-0.00709 0L4.9539113 8.1153518 5.090642 8.3584001ZM4.2675514 8.1680595 4.3643325 7.8381532 4.3623995 7.7734606C4.2053073 7.7451092 4.088938 7.6439465 4.088938 7.5235823c0-0.00709 0.0003866-0.013789 0.00129-0.020748 0.011856-0.017397 0.027707-0.028867 0.044589-0.038145L4.2634275 6.3075686 4.0420294 6.5946902c-0.00683 0.00773-0.015593 0.011341-0.025258 0.010696L3.7868675 7.2291157 4.2675514 8.1680595Zm1.2537731-0.0433-0.00103-0.2255219c-0.013145 0.0009021-0.026289 0.00206-0.039048 0.00361l-0.019588 0.00464 0.021392 0.2168877c0.012629 0.0002578 0.025387 0.0003866 0.038274 0.0003866zm-0.076935-0.00206-0.020233-0.2061915-0.049615 0.011727-0.018042 0.00838 0.026418 0.1806753c0.021006 0.00245 0.03879 0.00412 0.061471 0.00541zm0.2337696-0.00438 0.022423-0.2033563-0.059924-0.00928 0.0018 0.2150835c0.011985-0.0007733 0.02397-0.00142 0.035697-0.00245zm0.097683-0.00876 0.036986-0.1564478-0.075002-0.027836-0.020877 0.1900827c0.020104-0.00168 0.039821-0.00374 0.058893-0.0058zm-0.4302958 0.0018-0.022681-0.157221-0.011083 0.00773-0.018042 0.1367308c0.015078 0.0049 0.031573 0.00889 0.051806 0.012758zm0.4976947-0.00979 0.051677-0.076678c-0.00979-0.017655-0.025516-0.034279-0.046135-0.049615l-0.031831 0.1296429c0.00915-0.00116 0.017913-0.00219 0.026289-0.00335zm0.073456-0.010181c-0.00335-0.00567-0.00631-0.012758-0.00799-0.018686l-0.01482 0.021779c0.00838-0.000902 0.015722-0.00206 0.02281-0.00309zm-0.6745039-0.015464 0.00593-0.043558c-0.00258 0.00541-0.0049 0.010825-0.0067 0.016238-0.00142 0.00464-0.00438 0.01366-0.00786 0.021521 0.00284 0.00206 0.00554 0.00412 0.00863 0.0058zM4.9216939 8.0576182 5.1438652 7.5717795 5.1180913 7.571264 4.8528775 7.936223 4.9216939 8.0576182Zm0.996807-0.067399 0.242275-0.3592887C6.0284267 7.6577356 5.8192712 7.6882777 5.6382093 7.660313l0.0018 0.2045162c0.1163693 0.01366 0.2286148 0.056187 0.2784874 0.1253902zM5.5202935 7.8608342 5.5195203 7.6327349C5.4795707 7.6184303 5.4418119 7.5998731 5.409079 7.5759034L5.3632014 7.5753879 5.3186125 7.91148c0.057476-0.030671 0.1289985-0.046393 0.201681-0.050646zm-0.6960251 0.024485 0.2286148-0.3148287-0.2399553 0.00129 0.062244-0.1027091 0.2518114-0.00103 0.075904-0.1052865-0.063919 0.033377C5.2771165 7.2409717 5.4035376 7.0838796 5.5183605 6.9243389L5.5115304 4.6906407 5.0278825 5.3182361c0.041109 0.2067069 0.2042584 0.024614 0.3082563 0.1199776 0.07526 0.068301 0.00967 0.1775825 0.1399524 0.2404709-0.1391792 0.029382-0.1951087 0.0018-0.2601878-0.055543-0.017655-0.023325-0.059151-0.039176-0.085441-0.020877-0.1241015 0.062115-0.253229 0.1141786-0.3230763 0.031058-0.00425-0.00361-0.00902-0.00838-0.012629-0.011985l-0.334159 0.4310691 0.341118 1.4424377 0.010954 0.00799c0.0007732 0.00696 0.00129 0.01366 0.00129 0.020748 0 0.067657-0.036857 0.1289985-0.096781 0.1751339l0.1070907 0.1866033zm6.4259576-0.1387927-0.834689-0.3974341-0.0014 0.1171426 0.319596 0.2064492 0.51651 0.073842zM10.644023 7.660313 10.41296 7.5108242l-0.0018 0.116627 0.232867 0.032862zm-0.462384-0.00657 0.03338-0.2712706-0.04884-0.031702-0.159283 0.1738452 0.08054 0.1213953 0.0942 0.00773zm-0.143174-0.012629-0.058507-0.087245-0.069203 0.076549 0.1277103 0.010696zM9.8624286 7.626678 9.9590808 7.5211337 9.8651348 7.3805369c-0.00825 0.0125-0.015464 0.024614-0.023068 0.037243C9.7709311 7.3592734 9.696831 7.3060502 9.6202824 7.2577248l-0.076935 0.2621202 0.3127668 0.1063175 0.00631 0.0005155zm-0.1662419-0.014691-0.1636645-0.055672-0.011985 0.040594 0.1756494 0.015078zm-0.2144392-0.018686 0.01482-0.049615-0.4195996-0.1416277-0.042656 0.108766 0.1644377 0.057991 0.2829978 0.024485zM4.5341827 7.5601813 4.519105 7.4280898c-0.017397-0.00168-0.034924-0.00296-0.052321-0.00335l0.00503 0.1372462c0.021135 0 0.042012-0.0006443 0.062373-0.0018zm0.1073485-0.011727-0.019975-0.101807c-0.02049-0.00554-0.041625-0.010052-0.063404-0.013531l0.014304 0.1242304c0.023326-0.00206 0.046522-0.00515 0.069074-0.00889zm-0.2854464 0.00825-0.00387-0.1265501c-0.016109 0.00232-0.032089 0.00477-0.047424 0.00786L4.298609 7.550516c0.01933 0.00232 0.038532 0.00451 0.057476 0.00619zm4.6903409-0.00116-0.025645-0.00876-0.00245 0.0067 0.028094 0.00206zm-0.068172-0.00593 0.00619-0.015464-0.6118732-0.2148258-0.1116012 0.2117329 0.658653 0.013403 0.058636 0.00515zm-4.7148262-0.00412 0.00528-0.098585c-0.00503 0.00129-0.00979 0.00258-0.014433 0.00387l-0.00593 0.0924c0.00515 0.00103 0.010052 0.00168 0.015078 0.00232zm0.5015608-0.027578-0.00116-0.00477C4.7356061 7.4911071 4.7009401 7.4730653 4.6624081 7.4594052l0.016238 0.081832c0.029382-0.00619 0.057991-0.014047 0.086343-0.023325zm-0.5543973 0.019202 0.00438-0.072167c-0.016237 0.00683-0.031315 0.014304-0.044847 0.022552l-0.00477 0.041109c0.015207 0.00296 0.030284 0.0058 0.045233 0.00851zM8.218438 7.5305412 8.3362249 7.3060502 7.6703553 7.0718947C7.5364597 7.2115894 7.3965072 7.3346593 7.2502401 7.4349199L7.1483042 7.50902 8.218438 7.5305412ZM9.507006 7.5073447 9.5862608 7.2362035C9.4686028 7.1644231 9.3432126 7.1047564 9.2112501 7.0541107L9.0904992 7.3671345 9.507006 7.5073447ZM6.836053 7.5025765 6.9315454 7.093287 6.9307722 6.9573295c-0.065723 0.011212-0.1301584 0.022681-0.1965263 0.035053L6.4536966 7.4948443 6.836053 7.5025765ZM8.9986151 7.4981949 9.0406266 7.3896867 8.4420269 7.1877485 8.3911234 7.284529 8.9986151 7.4981949ZM6.4105253 7.4942 6.6854043 7.0012741c-0.019717 0.00438-0.03995 0.00851-0.06044 0.012114L6.3018882 7.4918803 6.4105253 7.4942ZM9.9854991 7.4918803 10.134086 7.33002 9.9732565 7.2253785c-0.0058 0-0.011985-0.0006444-0.017784-0.0006444-0.020877 0.03995-0.043687 0.080027-0.068043 0.1201059l0.09807 0.1470403zM6.2560105 7.491236 6.5713547 7.0245995C6.3359098 7.0736989 6.0941502 7.1315613 5.848138 7.1974137l0 0.2854457 0.4078725 0.00838zm-0.4831324-0.010181 0.0003866-0.263409c-0.046522 0.0125-0.092528 0.025001-0.1385349 0.038274l0.0018 0.2225573 0.1363441 0.00258zM5.5195203 7.4762871 5.5190048 7.2892972c-0.040723 0.012114-0.081961 0.023841-0.1230705 0.035955l-0.019846 0.1485868 0.1434319 0.00245zM5.3223497 7.4721633 5.339876 7.341876c-0.013918 0.00425-0.027707 0.00889-0.041367 0.012629l-0.019717 0.1170137 0.043558 0.0006444zm-0.571537-0.014047-0.3202412-1.3674356-0.011856 0.01598 0.00477 0.1368596 0.230419 1.1725845c0.035052 0.010954 0.067785 0.024872 0.09691 0.042012zm2.373264-0.012629 0.046522-0.056574 0.2872505-0.3917631-0.2372491-0.082992c-0.03415 0.00412-0.068688 0.00851-0.1020648 0.013918l0.00554 0.5174111zm-2.8534325-0.03879 0.052321-0.9977085-0.00515-0.1719121-0.00941 0.013016-0.1332513 1.191013c0.028738-0.014305 0.061084-0.025645 0.095492-0.034408zm0.3427934-0.00168-0.1802887-0.9189691 0.032346 0.9004118c0.050001 0.00116 0.1002606 0.00735 0.1479424 0.018557zM4.3511878 7.3917486 4.3363678 6.8789768 4.3069855 7.3985787c0.014562-0.00258 0.029382-0.00477 0.044202-0.00683zM7.5454806 7.0282079 7.4945771 7.0104238C7.410554 7.1422575 7.3198298 7.2709983 7.2199558 7.3921352 7.336454 7.2802763 7.4439313 7.1579796 7.5454806 7.0282079ZM9.0541579 7.3545052 9.1754243 7.0408371C8.9938469 6.9744692 8.7997692 6.9274318 8.5948664 6.8980495L8.4605842 7.1530826 9.0541579 7.3545052Zm1.1671731-0.013274 0.0071-0.057862-0.03582 0.03879 0.02874 0.019073zM7.6297613 7.0574613 7.5819507 7.0408371C7.5113301 7.1306593 7.4345238 7.2211258 7.347279 7.3155866 7.4510191 7.2296312 7.5441919 7.1448349 7.6297613 7.0574613Zm2.5306137 0.2439496 0.04704-0.051547-0.02577-0.011856c-0.04395-0.00374-0.08828-0.00619-0.132994-0.00889l0.11173 0.072295zM8.3546533 7.2713849 8.4052991 7.1746038 7.7730644 6.9614534c-0.024485 0.026934-0.04897 0.053739-0.073585 0.080028L8.3546533 7.2713849ZM3.7628977 7.1829803 3.97128 6.6168558 3.6799056 7.02112 3.7628977 7.1829803ZM8.4234697 7.1410977 8.5541436 6.8922503C8.3524625 6.8653166 8.1396987 6.8526873 7.855541 6.8629969l-0.0558 0.066755 0.6237292 0.2113463zM7.7336303 6.9476643 7.6685511 6.9256276c-0.020233 0.027449-0.041367 0.056058-0.062115 0.082992l0.05245 0.019202c0.025001-0.027063 0.05013-0.053352 0.074744-0.080157zM7.6315655 6.9131272 7.5675173 6.8917349c-0.016624 0.028609-0.03415 0.05696-0.051934 0.085183l0.054383 0.018944c0.020104-0.02732 0.040981-0.05477 0.0616-0.082734zM3.6601886 6.9829746 3.9157371 6.6293562 3.5854442 6.8354188 3.6601886 6.9829746Zm3.8182797-0.019202 0.053868-0.082992c-0.05696 0.00464-0.1439475 0.012629-0.2275839 0.022037l0.1737163 0.060955zm0.3230763-0.093688-0.0018-0.00103-0.096652 0.00812c-0.00412 0.00541-0.00773 0.011341-0.011341 0.016238l0.068688 0.023068c0.014433-0.01598 0.028609-0.032604 0.041109-0.046393zM5.7739091 6.5289667 5.7745534 5.8874534 5.624678 6.2267673l0.00477 0.5345514c0.05129-0.07642 0.098585-0.1545147 0.1444629-0.232352zm0.4916378-1.7612619-0.4170223 0.9477076 0 0.6774679C6.125079 5.8707004 6.2712172 5.3277724 6.2655469 4.7677048Zm-0.6422865 1.3289041 0.151293-0.3427933 0-1.4031331-0.1762937 0.2288725 0.01031-0.0006443 0.014691 1.5176982zM4.4438451 5.9806262 4.76138 5.5710784C4.7017133 5.5084477 4.6442375 5.4565132 4.5078933 5.4815139l-0.1094103 0.081575 0.010181 0.2677912 0.035181 0.1497465zM5.8492978 5.5816457 6.2607787 4.6434744C6.2482784 4.3950137 6.2058802 4.1434601 6.1311358 3.8889424L5.8504577 4.2533859 5.8492978 5.5816457ZM4.3964211 5.510123 4.5067335 5.4057386C4.5055737 5.3217155 4.5006766 5.2009647 4.504285 5.1303441L4.3779927 5.0188718 4.3964211 5.510123Zm7.9386299-1.4363814-0.05206-0.00915-0.167789 0.2734615 0.04111 0.056058c0.121395-0.075131 0.189954-0.179 0.178742-0.32037zm-0.255677 0.2143102 0.14253-0.2329964-0.348722-0.054898 0.206192 0.2878948zM5.8504577 4.1602131 6.1114188 3.8216725C6.0438911 3.6059446 5.9530379 3.3885415 5.8383439 3.1686898l0.012114 0.9915233zm3.7958564-0.064564 0.062373-0.010567c0.043816-0.020361 0.07977-0.068559 0.091498-0.1447207l-0.2221713 0.039305 0.066239 0.112761c-0.014691 0.0006443-0.00631 0.00232 0.00206 0.00322zM10.156638 3.8773442 9.8334329 3.9345623C9.933178 4.104928 10.120941 4.0431994 10.156638 3.8773442Zm2.166944 0.1221684-0.01959 0.030542 0.02693 0.00412c-0.0026-0.011341-0.0043-0.02281-0.0073-0.034666zm-1.753401-0.1947221-0.154257 0.025516-0.000902 0.1259057c0.07719-0.021263 0.143818-0.077708 0.155159-0.1514219zm-0.294854 0.1479424 0.000902-0.096523-0.09408 0.016624c0.02281 0.040078 0.05593 0.065852 0.09317 0.079899zm0.675277-0.2109596-0.367536 0.060826c0.07023 0.1559324 0.3397 0.118689 0.367536-0.060826zm-1.428778 0.1454938 0.755692-0.1283542 0.004-0.27591-0.7751514 0.3786192c0.00515 0.00902 0.010052 0.016882 0.015464 0.025645zm1.74322-0.192789-0.0075-0.00374-0.287509 0.047682c0.07668 0.1564478 0.256967 0.1175292 0.294983-0.043944zm-0.847833 0.039048 0.922062-0.1449784-0.920258-0.1177869-0.0018 0.2627653zM5.9526513 2.7778279 5.6722309 2.8142982c0.098328 0.1152095 0.2354449 0.1192044 0.2804204-0.03647zM6.296089 2.7331101 5.9763633 2.774735c0.05477 0.1212665 0.2424039 0.1070909 0.3197257-0.041625zm0.3547783-0.046135-0.319468 0.041496c0.062631 0.1092816 0.2737192 0.085827 0.319468-0.041496zm0.2542598 0.043429-0.0005154-0.076549-0.2278416 0.029769c0.044718 0.075518 0.149231 0.085827 0.228357 0.04678zM5.7654037 2.6999906 6.9040962 2.5577185 6.9017765 2.1917286 5.7654037 2.6999906Zm1.6149948-0.1085082-0.308514 0.040336 0.0002577 0.047295c0.093431 0.042785 0.2515537-0.00425 0.3082563-0.087631zm0.1975572 0.044331 0.052321-0.00825c0.050904-0.013531 0.09575-0.042656 0.1174003-0.084023l-0.3177926 0.041496c0.036341 0.038017 0.092399 0.05361 0.1480712 0.050775zM8.0969139 2.497923 7.7890443 2.5381303c0.074487 0.072425 0.2559352 0.043945 0.3078696-0.040207zM7.0712401 2.5368416 8.246145 2.3904457 7.066472 2.1760065l0.00477 0.3608351zm1.3196256-0.077322-0.2368625 0.030929c0.072811 0.055414 0.180933 0.035053 0.2368625-0.030929zm2.0353673 0.02165 0.0482-0.030155 0.02771-0.5255306-0.07127-0.048713-0.0046 0.6043988zM7.0561624 1.1714673 7.1213705 1.0874443 7.1422473 0.39283673 7.0467549 0.28626151 7.0561624 1.1714673ZM6.6552488 17.999914c-0.089822 0.000902-0.1969129-0.0053-0.2881526-0.02088l-0.013789-0.0014c-0.2005213-0.02964-0.4475644-0.03376-0.7150979-0.03003-0.3069676 0.0039-0.6254046 0.01727-0.9828891 0.01662-0.1304161-0.000258-0.3059366-0.0057-0.339185-0.0116L4.0576227 17.929294C3.9323613 17.912927 3.8728235 17.902231 3.8935716 17.903648L3.7439539 17.870271C3.5996198 17.828389 3.5502627 17.809187 3.5345406 17.799264L3.477838 17.77233 3.3759021 17.714081C3.1536019 17.560468 2.638252 17.270254 2.3449446 17.26729c-0.02848-0.000258-0.059409-0.000129-0.011727 0l-0.015078-0.003C2.089396 17.262006 1.7036891 17.281981 1.4244285 17.217933 1.0634645 17.109811 0.89387199 16.954008 0.95998213 16.648458 0.99928739 16.465334 1.2007107 16.384533 1.1427193 16.133752 1.1151412 16.016223 0.53342349 15.770726 0.37517152 15.698946c-0.0649503-0.03054-0.11946219-0.12204-0.0460065-0.183897 0.048455-0.04021 0.0353103-0.06392 0.11533836-0.08016 0.18028868-0.03647 0.67437509 0 0.89216479 0 0.4558121 0 0.915748 0.02101 1.363699 0.02332 0.02281 0 0.045362-0.000644 0.068687-0.0017 0.00567-0.000386 0.011469-0.000644 0.01714-0.001-0.0001289-0.004 0-0.0081 0-0.01224 0.0009021 0 0.0018-0.000129 0.00284-0.000258-0.026934 0.355036 0.1198488 0.698602 0.5643204 0.993843 5.0251443-0.265214 4.1163553 0.05683 7.0378311-0.482875 0.692159-0.18351 1.282253-0.399883 1.793221-0.643962 0.04704-0.07333 0.08621-0.142787 0.119076-0.208511 0.131061-0.01289 0.262379-0.02758 0.394212-0.0442 0.430425 0.0014 1.303775 0.0741 1.638191 0.207609 0.05773 0.101163-0.04626 0.210186-0.377974 0.403233-0.233899 0.115725-0.522954 0.211475-0.60092 0.239698-0.0031 0.001-0.0057 0.0027-0.0079 0.0048-0.0037 0.0013-0.0073 0.0026-0.01057 0.0037-0.01392 0.0045-0.01637 0.02152-0.02294 0.03402-0.106833 0.218563 0.04626 0.458003-0.03402 0.687648-0.142401 0.151293-0.293823 0.300782-0.527464 0.448725l-0.171267 0.08557-0.06005 0.02565c-0.08995 0.03415-0.203098 0.05851-0.327071 0.06637-0.255162 0.01649-0.62141 0.0061-1.138821 0.01379 0.0625-0.0021-0.02565-0.000773-0.216373 0.0076 0.199104-0.01198 0.02333-0.0077-0.245239 0.01714 0.06328-0.0066 0.025-0.003-0.02294 0.0027 0.05413-0.009-0.02049-0.000773-0.13119 0.01946 0.0014-0.0013-0.03106 0.0048-0.116498 0.02603 0.09034-0.02461 0.02809-0.01108-0.02577 0.0057l-0.151679 0.0442c-0.01289 0.0075-0.1787427 0.05232-0.6922884 0.201165 0.5254017-0.146911 0.1782268-0.06534-0.1449784 0.04214-0.054641 0.01791-0.1293851 0.01701-0.2244909 0.01778-0.021006-0.000516-0.059796-0.000902-0.1853146 0.01495 0.1268077-0.01714 0.047811-0.01753-0.015464 0.0012-0.2087689 0.06315-1.1486155 0.201681-1.2652425 0.207093l-0.01598 0.0023c-0.076806 0.0031-0.1721699 0.01624-0.518185 0.0732 0.2271973-0.05967-0.05696 0.03544-0.4300381 0.03918z"/></svg>