<svg xmlns:svg="http://www.w3.org/2000/svg" xmlns="http://www.w3.org/2000/svg" version="1.1" width="13" height="18" viewBox="0 0 13 18"><path d="m11.87 18 0-1.7-0.69 0L9.33 9.75C9.53 9.66 9.73 9.53 9.94 9.37 9.86 9.15 9.67 9.01 9.42 8.92 10.12 8.8 10.78 8.57 11.27 8.06 11.3 7.93 11.22 7.84 11.12 7.76 11.64 7.47 12.09 7.13 12.31 6.58 12.2 6.48 12.05 6.42 11.86 6.41c0.49-0.44 0.61-0.87 0.67-1.31-0.13-0.09-0.27-0.12-0.44 0C12.32 4.52 12.3 3.94 12.19 3.36 11.78 3.65 11.53 3.94 11.37 4.23 11.36 3.95 11.26 3.75 11.12 3.59 11.01 3.71 10.91 3.84 10.81 3.97 10.63 1.75 8.77 0 6.51 0 4.24 0 2.37 1.75 2.2 3.98 2.1 3.84 1.99 3.72 1.88 3.59 1.74 3.75 1.64 3.95 1.63 4.23 1.47 3.94 1.22 3.65 0.81 3.36 0.7 3.94 0.68 4.52 0.91 5.1 0.74 4.98 0.6 5 0.47 5.1 0.52 5.53 0.64 5.97 1.14 6.41 0.95 6.42 0.8 6.48 0.69 6.58 0.91 7.13 1.36 7.47 1.88 7.76 1.78 7.84 1.7 7.93 1.73 8.06 2.22 8.57 2.88 8.8 3.58 8.92 3.33 9.02 3.14 9.15 3.06 9.37c0.23 0.19 0.46 0.33 0.69 0.42l-1.92 6.51-0.69 0 0 1.7 10.72 0z" fill="#000"/></svg>