<svg xmlns:svg="http://www.w3.org/2000/svg" xmlns="http://www.w3.org/2000/svg" height="18" viewBox="0 0 25 18" width="25" version="1.1"><path d="M0.37 17.97C0.24 17.9 0.2 17.73 0.27 17.61 0.55 17.11 1.1 16.72 1.85 16.41L2.57 16.16 2.3 0.27C2.29 0.12 2.41 0 2.56 0l2.06 0c0.15 0 0.26 0.12 0.26 0.26l0 0.94 0.52-0.17 0.06-0.72C5.47 0.17 5.59 0.06 5.74 0.07L7.18 0.14C7.32 0.15 7.43 0.26 7.43 0.4l0 0.96 0.47-0.07 0.06-0.91c0.01-0.14 0.12-0.25 0.26-0.25l1.48 0c0.15 0 0.26 0.12 0.26 0.27l-0.01 5.55 0.3 0 0.22-0.7c0.03-0.1 0.12-0.17 0.22-0.18l0.67-0.07c0.12-0.01 0.24 0.06 0.28 0.18l0.29 0.84 0.68-0.02 0.19-0.56c0.04-0.11 0.14-0.18 0.25-0.18l0.99 0c0.09 0 0.18 0.05 0.23 0.13l0.42 0.73 0.55 0.04 0.01-5.81c0-0.15 0.13-0.27 0.28-0.26l1.44 0.07c0.07 0 0.14 0.04 0.18 0.09l0.07 0.18 0.03 0.8 0.59 0.02 0.02-0.87c0-0.14 0.12-0.26 0.26-0.26l1.4-0.03c0.15 0 0.26 0.11 0.27 0.26l0.01 0.91 0.59 0.01 0.02-0.93c0-0.15 0.12-0.27 0.27-0.26l1.43 0.04c0.14 0 0.26 0.12 0.26 0.26l0.03 15.41 0.99 0.17c0.38 0.07 0.76 0.15 1.16 0.23 0.14 0.03 0.23 0.17 0.2 0.31-0.03 0.14-0.17 0.23-0.31 0.2-6-1.26-8.91-0.73-10.21 0.61-0.1 0.1-0.27 0.11-0.37 0.01-0.1-0.1-0.11-0.27-0.01-0.37 0.43-0.44 0.99-0.79 1.71-1.05l0.02-0.01-2.02-0.06c-2.72-0.04-5.21 0.01-7.27 0.21-3.1 0.3-5.06 0.91-5.58 1.83-0.07 0.13-0.23 0.17-0.36 0.1zM3.09 16.01 3.68 15.87c0.77-0.16 1.63-0.28 2.57-0.37 0.5-0.05 1.02-0.09 1.57-0.12l1.59-0.07 0.03-14.65-0.97 0L8.42 1.55C8.42 1.67 8.32 1.77 8.2 1.79L7.21 1.93C7.05 1.95 6.91 1.83 6.91 1.67L6.91 0.65 5.97 0.61 5.92 1.25C5.91 1.35 5.84 1.44 5.74 1.48L4.71 1.82C4.54 1.88 4.36 1.75 4.36 1.57l0-1.04-1.53 0 0.26 15.48zM21.88 15.7 21.84 0.63 20.93 0.6 20.92 1.53c0 0.15-0.12 0.27-0.27 0.26L19.54 1.77C19.4 1.77 19.28 1.66 19.28 1.52l-0.01-0.9-0.88 0.02-0.02 0.88c0 0.15-0.12 0.26-0.27 0.26l-1.12-0.04c-0.07 0-0.14-0.03-0.18-0.08l-0.07-0.18-0.02-0.8-0.91-0.04-0.03 14.74 0.04 0c0.85 0 3.7 0.06 5.49 0.26l0.6 0.08zM15.22 15.34 15.24 6.68 14.51 6.62C14.43 6.61 14.35 6.56 14.31 6.49l-0.42-0.71-0.64 0-0.19 0.56c-0.03 0.11-0.13 0.18-0.24 0.18l-1.06 0.03c-0.12 0.01-0.22-0.07-0.26-0.18L11.22 5.55 10.93 5.58 10.7 6.29c-0.04 0.11-0.14 0.18-0.25 0.18l-0.49 0-0.02 8.83 1.09-0.02-0.04-4.01c0-0.93 0.57-1.83 1.44-1.83 0.83 0 1.85 0.76 1.85 1.74l-0.03 4.12 0.97 0.02zm3.3-9.19-0.03-2.57 0.59-0.01 0.03 2.57-0.59 0.01zM5.96 6.01 5.93 3.61 6.51 3.6 6.55 6 5.96 6.01Z" fill="#000"/></svg>