<svg xmlns:svg="http://www.w3.org/2000/svg" xmlns="http://www.w3.org/2000/svg" version="1.1" width="19" height="18" viewBox="0 0 19 18"><path d="M2.88 15.24C2.46 15.65 2.11 16.15 1.85 16.74L0.29 11.95 4.69 14.11c-0.49 0.18-0.94 0.42-1.33 0.71 3.79 3.28 6.73 2.23 8.99 0.84C9.92 13.05 8.48 11.27 9.58 9.95L5.28 4.44C5.02 4.55 4.73 4.62 4.42 4.62c-1.22 0-2.21-0.99-2.21-2.21 0-1.22 0.99-2.21 2.21-2.21 1.22 0 2.21 0.99 2.21 2.21 0 0.64-0.27 1.21-0.7 1.61l4.23 5.42c1.47-0.96 2.81 0.24 5.26 3.7l0 0C16.57 11.3 17.78 6.94 16.45 3.93 16.06 4.22 15.7 4.58 15.38 5.01L14.86 0 18.71 3.04c-0.64 0.09-1.23 0.28-1.76 0.57 2.49 5.39-0.65 6.82 0.74 14.38L17.69 18C12.56 15.55 8.87 20.75 2.88 15.24ZM5.95 2.41c0-0.84-0.68-1.52-1.52-1.52-0.84 0-1.52 0.68-1.52 1.52 0 0.84 0.68 1.52 1.52 1.52 0.84 0 1.52-0.68 1.52-1.52z" fill="#000"/></svg>