<svg xmlns:svg="http://www.w3.org/2000/svg" xmlns="http://www.w3.org/2000/svg" height="18" viewBox="0 0 18 18" width="18" version="1.1"><path d="m8.91 0c-0.78 0-1.53 0.11-2.19 0.3-0.67 0.19-1.31 0.5-1.85 0.89-0.46 0.34-0.91 0.77-1.25 1.22-0.6 0.8-0.93 1.67-1.01 2.68-0.01 0.07-0.01 0.12-0.01 0.13 0 0 3.11 0.39 3.13 0.39 0.01 0 0.02-0.03 0.04-0.13 0.28-1.16 0.79-1.94 1.57-2.41 0.62-0.37 1.41-0.52 2.26-0.43 0.39 0.04 0.75 0.14 1.06 0.29 0.39 0.19 0.74 0.48 0.99 0.83 0.22 0.31 0.35 0.66 0.39 1.05 0.01 0.11 0.01 0.36 0 0.46-0.03 0.26-0.1 0.48-0.21 0.71-0.12 0.23-0.21 0.36-0.4 0.55-0.29 0.3-0.74 0.69-1.54 1.35-0.52 0.42-0.87 0.74-1.16 1.05-0.71 0.74-1.03 1.3-1.23 2.11-0.13 0.53-0.18 1.08-0.17 1.89 0 0.2 0.01 0.39 0.01 0.43l0 0.06 3.1 0 0-0.34c0-0.47 0.03-0.77 0.08-1.06 0.08-0.47 0.2-0.72 0.56-1.12 0.23-0.26 0.53-0.54 0.99-0.93 0.68-0.57 1.16-1 1.61-1.45 0.7-0.7 1.07-1.18 1.33-1.75 0.2-0.44 0.32-0.88 0.35-1.37 0.01-0.12 0.01-0.43 0-0.57C15.32 3.81 14.94 2.92 14.21 2.09 14.1 1.96 13.82 1.68 13.68 1.56 12.97 0.93 12.15 0.51 11.16 0.26 10.56 0.1 9.99 0.03 9.25 0.01c-0.11 0-0.23-0.01-0.34 0zm-1.56 14.85 0 3.15 3.15 0 0-3.15z"/></svg>