<?xml version="1.0" standalone="no"?>
<!DOCTYPE svg PUBLIC "-//W3C//DTD SVG 1.1//EN" "http://www.w3.org/Graphics/SVG/1.1/DTD/svg11.dtd">
<svg xmlns:xlink="http://www.w3.org/1999/xlink" xmlns="http://www.w3.org/2000/svg" version="1.1" width="11" height="18" viewBox="0 0 11 18">
  <path d="m0.13 12.63c0-2.37 1.54-4.39 3.67-5.1l0-6.49-0.43 0C3.24 1.04 3.13 0.93 3.13 0.8l0-0.55C3.13 0.11 3.24 0 3.37 0L7.63 0C7.76 0 7.87 0.11 7.87 0.24l0 0.55c0 0.13-0.11 0.24-0.24 0.24l-0.43 0 0 6.49C9.33 8.24 10.87 10.26 10.87 12.63 10.87 15.59 8.47 18 5.5 18 2.53 18 0.13 15.59 0.13 12.63Z" fill="#000"/>
</svg>