<svg xmlns="http://www.w3.org/2000/svg" version="1.1" width="18" height="18" viewBox="0 0 18 18"><path d="M8.17 17.64C7.94 17.48 7.65 17.25 7.58 17.11 7.54 17.03 7.51 16.94 7.5 16.85 7.42 16.58 7.42 16.29 7.48 16.04V16.02C7.68 15.37 7.88 14.73 7.9 14.2 5.93 15.59 4.7 15.98 3.37 16.95 3.31 17 3.23 17.04 3.16 17.09 2.97 17.21 2.74 17.3 2.5 17.27 2.29 17.25 2.01 17.19 1.89 17.11 1.62 16.94 1.38 16.58 1.3 16.37 1.23 16.19 1.19 16.01 1.15 15.86 1.11 15.69 1.09 15.52 1.13 15.33 1.18 15.1 1.24 14.77 1.41 14.57 1.52 14.45 1.66 14.41 1.8 14.34 1.92 14.28 2.19 14.23 2.31 14.21 3.76 14.02 5.45 13.73 6.67 13.14 5.17 12.16 4.15 10.16 4.08 8.21 3.98 4.95 7.68 4.21 9.56 0c0.31 4.84 2.29 4.43 1.37 9.77 2.29-2.09-0.55-3.44 2.43-6.95-0.84 4.88 0.69 4.07 0.39 6.93-0.16 1.48-0.97 2.57-2.03 3.25 0.09 0.04-0.06-0.04 0.03 0.01 1.34-0.3 2.11-1.28 2.41-2.59 0.41 1.81-0.25 2.79-2.34 2.63 1.13 0.49 2.25 0.95 3.35 1.31 0.01 0 0.03 0.01 0.05 0.01 0.15-0.01 0.41 0.07 0.59 0.15 0.3 0.13 0.48 0.42 0.52 0.75 0.07 0.59-0.61 1.48-1.17 1.73-0.33 0.15-0.69 0.25-0.98 0.27-0.36 0.02-0.64-0.15-0.75-0.44-0.05-0.11-0.13-0.23-0.23-0.4-0.91-0.81-1.92-1.51-2.99-2.15 0.34 0.47 0.58 1.01 0.79 1.49 0.24 0.46 0.21 0.6 0.21 0.87C11.2 17.22 10.33 17.98 9.5 18 9.03 18.01 8.52 17.89 8.17 17.64Zm7.71-1.51c-10.59 1.25-5.29 0.62 0 0zM12.3 9.6C11.56 10.75 10.55 11.63 9.38 12.07 9.31 9.6 7.54 9.79 7.56 7.35 5.72 9.77 6.4 12.68 8.56 13.28 10.24 13.75 12.4 11.83 12.3 9.6ZM6.27 0.16C8.27 3.58 5.09 3.11 4.72 5.84 3.7 2.9 6.05 3.37 6.27 0.16ZM11.75 0.2C10.42 1.88 10.76 3.76 12 4.99 11.47 3.11 11.51 1.69 11.75 0.2Z" fill="#000"/></svg>