<svg xmlns:svg="http://www.w3.org/2000/svg" xmlns="http://www.w3.org/2000/svg" width="18" height="18" viewBox="0 0 18 18" version="1.1"><path d="m1.42 18 0.33-2.89 0.64-1.08 0-0.04 0-0.01C2.29 13.76 2.23 13.52 2.23 13.26l0-0.03-0.02-0.04-0.36-0.24-0.13-0.09 0.72-1.25 0.15 0.11 0.29 0.2 0.05 0 0.01-0.01c0.24-0.16 0.52-0.26 0.83-0.27l0.01 0 0.04-0.02 2.98-5.04 0.01-0.02C6.16 5.97 5.75 5.12 5.75 4.17c0-1.56 1.1-2.87 2.58-3.17l0-0.04 0-0.95 1.34 0 0 0.96 0 0.04c1.47 0.31 2.57 1.61 2.57 3.17 0 0.94-0.4 1.8-1.05 2.39l0.05 0.08 2.95 4.99 0.04 0.02 0.01 0c0.31 0.01 0.59 0.11 0.83 0.27l0.01 0.01 0.05 0 0.29-0.2 0.15-0.11 0.72 1.25-0.12 0.09-0.36 0.24-0.02 0.04 0 0.03c0 0.26-0.06 0.5-0.16 0.72l0 0.01 0 0.04 0.64 1.08 0.33 2.89-1.7-1.98-0.65-1.12-0.04-0.02-0.02 0c-0.37 0-0.71-0.13-0.98-0.34l-0.01 0-0.04-0.01-0.63 0.22-0.85 0.22c-0.86 0.19-1.75 0.29-2.67 0.29-0.92 0-1.81-0.1-2.67-0.29l-0.85-0.22-0.63-0.22-0.04 0.01-0.01 0.01C4.54 14.75 4.2 14.87 3.83 14.87l-0.02 0-0.04 0.02-0.65 1.12-1.7 1.98zm10.61-4.61 0.52-0.18 0.03-0.04 0-0.01c0.01-0.25 0.09-0.49 0.21-0.7l0-0.01 0-0.05-2.94-5.09-0.01-0.02c-0.27 0.07-0.56 0.11-0.85 0.11-0.29 0-0.58-0.04-0.85-0.11l-0.01 0.02-2.94 5.09 0 0.05 0 0.01c0.12 0.21 0.19 0.45 0.21 0.7l0 0.01 0.03 0.04 0.52 0.18c0.96 0.28 1.98 0.43 3.04 0.43 1.05 0 2.07-0.15 3.03-0.43zM10.89 4.17c0-1.04-0.85-1.89-1.89-1.89-1.04 0-1.89 0.85-1.89 1.89 0 1.04 0.85 1.89 1.89 1.89 1.04 0 1.89-0.85 1.89-1.89z" fill="#000"/></svg>