<svg xmlns:svg="http://www.w3.org/2000/svg" xmlns="http://www.w3.org/2000/svg" version="1.1" width="19" height="18" viewBox="0 0 19 18"><path d="M1.13 17.95 7.45 18 8.79 14.68c0.31-0.84 0.95-0.82 1.23 0l1.39 3.21 6.11 0-2.95-7.28c-0.76-1.85 0.15-2.03 1.66-1.93 2.25 0.14 2.42-1.72 1-2.55C15.65 5.19 14.15 4.5 12.01 3.65 11.75 1.79 11.36 0.11 9.49 0c-1.87-0.11-2.59 2.05-2.62 3.75-1.82 0.51-3.65 1.42-4.86 2.14-1.33 0.79-2.06 2.83 0.89 2.74 1.29-0.04 2.15 0.09 1.18 2.41l-2.95 6.91z" fill="#000"/></svg>