<svg xmlns:svg="http://www.w3.org/2000/svg" xmlns="http://www.w3.org/2000/svg" height="18" viewBox="0 0 17 18" width="17" version="1.1"><path d="m5.04 18 0-1.63 0.06 0 2.85-7.23 0.33 0.13-2.8 7.1 5.7 0-2.48-7.16 0.33-0.12 2.52 7.28 0.05 0 0 1.63-6.56 0zm4.37-2.11 0 0 0 0c-0.2-0.13-0.32-0.31-0.36-0.53-0.04-0.19-0.02-0.36 0.07-0.52-0.49 0.04-0.98 0.03-1.46-0.03 0.07 0.16 0.09 0.34 0.04 0.52-0.06 0.22-0.18 0.4-0.38 0.52C7.1 15.96 6.88 16 6.66 15.94 6.43 15.89 6.26 15.76 6.14 15.56 6.02 15.36 5.99 15.14 6.04 14.92 6.08 14.74 6.17 14.6 6.31 14.49 5.86 14.33 5.42 14.13 5.02 13.88c0 0.17-0.05 0.33-0.16 0.48-0.13 0.19-0.32 0.3-0.55 0.34C4.08 14.73 3.87 14.68 3.68 14.55 3.5 14.41 3.38 14.23 3.35 14 3.31 13.77 3.36 13.56 3.49 13.37 3.6 13.21 3.75 13.11 3.92 13.06 3.57 12.73 3.24 12.36 2.96 11.96 2.89 12.12 2.77 12.25 2.61 12.34 2.41 12.45 2.2 12.47 1.97 12.41 1.75 12.35 1.58 12.21 1.46 12.01 1.35 11.81 1.33 11.59 1.39 11.37 1.46 11.14 1.59 10.97 1.79 10.86 1.95 10.77 2.12 10.74 2.3 10.76 2.19 10.5 2.09 10.23 2.01 9.95 1.93 9.66 1.86 9.37 1.82 9.08 1.68 9.19 1.52 9.26 1.34 9.27 1.11 9.28 0.91 9.21 0.73 9.05 0.56 8.89 0.46 8.7 0.45 8.47 0.44 8.24 0.51 8.03 0.67 7.86 0.83 7.68 1.02 7.59 1.25 7.58 1.44 7.57 1.61 7.61 1.75 7.71 1.78 7.22 1.86 6.74 1.99 6.27 1.82 6.32 1.64 6.31 1.46 6.24 1.25 6.16 1.1 6 1.01 5.79 0.91 5.57 0.91 5.36 1 5.14 1.08 4.93 1.24 4.77 1.45 4.68 1.67 4.59 1.89 4.59 2.1 4.68 2.27 4.74 2.4 4.85 2.49 5 2.7 4.58 2.96 4.17 3.27 3.8 3.09 3.78 2.94 3.71 2.81 3.58 2.65 3.42 2.56 3.22 2.56 2.99 2.55 2.75 2.63 2.55 2.79 2.39 2.95 2.22 3.15 2.13 3.38 2.13 3.62 2.12 3.82 2.2 3.99 2.36 4.12 2.5 4.2 2.65 4.23 2.83 4.6 2.53 5.01 2.26 5.46 2.03 5.3 1.94 5.19 1.8 5.13 1.62 5.04 1.41 5.05 1.19 5.15 0.98 5.25 0.76 5.4 0.62 5.62 0.54c0.22-0.08 0.43-0.07 0.65 0.02 0.21 0.1 0.36 0.26 0.44 0.47 0.06 0.17 0.07 0.34 0.02 0.51C7.21 1.41 7.68 1.33 8.15 1.31 8.05 1.16 8.01 0.99 8.01 0.81 8.02 0.58 8.12 0.38 8.29 0.22 8.46 0.06 8.67-0.01 8.9 0 9.13 0.01 9.32 0.1 9.48 0.28 9.64 0.45 9.71 0.65 9.7 0.88 9.69 1.07 9.63 1.23 9.52 1.37c0.49 0.07 0.96 0.2 1.41 0.37-0.03-0.18-0.01-0.36 0.08-0.53 0.11-0.2 0.27-0.34 0.5-0.41 0.22-0.07 0.44-0.05 0.64 0.05 0.2 0.11 0.34 0.27 0.41 0.5 0.07 0.22 0.05 0.44-0.06 0.64-0.08 0.16-0.2 0.28-0.36 0.36 0.4 0.25 0.78 0.55 1.12 0.89 0.04-0.17 0.13-0.32 0.27-0.44 0.17-0.15 0.38-0.22 0.62-0.2 0.23 0.02 0.43 0.12 0.58 0.29 0.15 0.17 0.21 0.38 0.2 0.61-0.02 0.23-0.12 0.43-0.29 0.58-0.14 0.12-0.31 0.19-0.49 0.2 0.27 0.4 0.5 0.84 0.68 1.3 0.11-0.15 0.26-0.25 0.45-0.3 0.22-0.06 0.44-0.03 0.64 0.09 0.2 0.12 0.33 0.29 0.39 0.51 0.06 0.22 0.03 0.44-0.09 0.64-0.12 0.2-0.29 0.33-0.51 0.39-0.17 0.05-0.34 0.04-0.5-0.03 0.09 0.48 0.12 0.96 0.1 1.43 0.16-0.09 0.33-0.12 0.51-0.09 0.23 0.03 0.41 0.14 0.55 0.33 0.14 0.19 0.2 0.4 0.16 0.62-0.03 0.23-0.14 0.41-0.33 0.55-0.19 0.14-0.4 0.2-0.62 0.16-0.18-0.03-0.34-0.1-0.46-0.23-0.11 0.47-0.28 0.92-0.48 1.35 0.17-0.02 0.33 0.02 0.49 0.11 0.2 0.12 0.33 0.29 0.39 0.52 0.06 0.23 0.03 0.44-0.08 0.64-0.12 0.2-0.29 0.33-0.52 0.39-0.23 0.06-0.44 0.03-0.64-0.08-0.17-0.1-0.28-0.23-0.35-0.41-0.3 0.39-0.63 0.74-1.01 1.06 0.17 0.06 0.31 0.16 0.41 0.31 0.13 0.19 0.18 0.4 0.13 0.63-0.04 0.23-0.16 0.41-0.35 0.54-0.19 0.13-0.4 0.18-0.63 0.13-0.23-0.04-0.41-0.16-0.54-0.35-0.11-0.15-0.16-0.32-0.15-0.5-0.41 0.23-0.86 0.41-1.33 0.55 0.13 0.12 0.21 0.26 0.25 0.44 0.05 0.23 0 0.44-0.12 0.63-0.13 0.19-0.31 0.32-0.53 0.36-0.22 0.04-0.44 0-0.63-0.12zM9.23 14.47 9.15 14.09C8.44 14.16 7.71 14.11 7.01 13.93L6.91 14.29c0.05 0 0.1 0.01 0.15 0.02 0.06 0.02 0.12 0.04 0.18 0.06 0.64 0.13 1.31 0.17 1.99 0.09zm0.47-0.09c0.07-0.01 0.14-0.02 0.21-0.02 0.13-0.03 0.26-0.06 0.39-0.1 0.53-0.15 1.03-0.37 1.48-0.64l-0.22-0.32c-0.64 0.37-1.32 0.62-2.03 0.74l0.05 0.37c0.04-0.01 0.08-0.02 0.12-0.03zm-3.14-0.17 0.09-0.37C5.98 13.61 5.34 13.28 4.76 12.82l-0.24 0.28c0.05 0.02 0.09 0.05 0.14 0.08 0.06 0.04 0.11 0.09 0.16 0.15 0.53 0.37 1.12 0.67 1.74 0.87zM9.09 13.74 8.27 9.43 7.1 13.59c0.65 0.16 1.32 0.21 1.98 0.15zM11.35 13 8.84 9.39 9.47 13.68C10.13 13.57 10.77 13.35 11.36 13Zm0.79 0.36c0.05-0.04 0.11-0.07 0.17-0.09 0.56-0.41 1.05-0.91 1.45-1.48l-0.34-0.21c-0.16 0.22-0.33 0.43-0.52 0.64-0.32 0.34-0.66 0.63-1.03 0.88l0.2 0.32c0.02-0.02 0.04-0.04 0.07-0.05zM6.73 13.48 7.73 9.24 4.99 12.54c0.53 0.42 1.13 0.73 1.74 0.94zm5.92-1.51c0.17-0.18 0.33-0.38 0.47-0.58L9.35 9.11 11.68 12.8c0.34-0.23 0.67-0.51 0.96-0.82zm-8.4 0.9 0.23-0.3c-0.03-0.03-0.06-0.06-0.09-0.09C3.87 12.01 3.47 11.47 3.17 10.89l-0.33 0.17c0.04 0.04 0.07 0.09 0.09 0.14 0.03 0.06 0.06 0.12 0.08 0.19 0.34 0.56 0.76 1.07 1.24 1.49zM4.69 12.29 7.31 8.84 3.48 10.74c0.29 0.54 0.66 1.05 1.14 1.49 0.02 0.02 0.04 0.04 0.07 0.06zm9.28-0.84c0.03-0.06 0.08-0.11 0.12-0.16 0.35-0.61 0.6-1.28 0.74-1.98L14.43 9.25c-0.14 0.7-0.4 1.39-0.79 2.02l0.31 0.21c0.01-0.01 0.01-0.02 0.02-0.03zM14.07 9.21 9.7 8.66 13.34 11.07c0.36-0.58 0.61-1.22 0.74-1.87zM2.67 10.74 3 10.56C2.71 9.9 2.54 9.2 2.49 8.5L2.12 8.52c0 0.02-0.01 0.04-0.01 0.07 0.03 0.42 0.11 0.85 0.23 1.27 0.09 0.31 0.2 0.6 0.32 0.88zM3.31 10.38 7.09 8.31 2.84 8.49c0.04 0.65 0.2 1.29 0.47 1.9zM14.86 8.95c0.02-0.11 0.05-0.21 0.04-0.1 0.09-0.74 0.05-1.49-0.13-2.24l-0.39 0.12c0.16 0.71 0.2 1.44 0.1 2.16l0.38 0.06zM14.04 6.82 9.83 8.09 14.14 8.82c0.09-0.67 0.05-1.34-0.09-2zM2.09 8.15 2.47 8.12C2.47 7.42 2.59 6.71 2.83 6.04L2.48 5.9c-0.01 0.01-0.01 0.02-0.02 0.03C2.21 6.64 2.08 7.39 2.09 8.15ZM2.83 8.09 7.1 7.73 3.16 6.17C2.94 6.79 2.83 7.44 2.83 8.09ZM9.73 7.53 13.94 6.45C13.76 5.82 13.45 5.21 13.04 4.67L9.73 7.53ZM7.35 7.21 4.39 4.18c-0.01 0.01-0.01 0.01-0.02 0.02-0.46 0.49-0.81 1.03-1.06 1.61L7.35 7.21ZM9.4 7.05 12.8 4.37C12.67 4.22 12.54 4.08 12.4 3.95 12.04 3.62 11.66 3.34 11.26 3.12L9.4 7.05ZM7.79 6.84 6.31 2.85C5.71 3.1 5.16 3.45 4.66 3.91L7.79 6.84ZM8.91 6.75 10.91 2.94C10.3 2.66 9.66 2.49 9 2.43L8.91 6.75ZM8.34 6.68 8.61 2.41C7.96 2.4 7.3 2.5 6.67 2.71L8.34 6.68Zm5.95-0.32 0.38-0.1c-0.01-0.04-0.01-0.07-0.01-0.11-0.23-0.74-0.58-1.4-1.03-1.98L13.31 4.44C13.76 5.02 14.08 5.68 14.29 6.36ZM4.11 3.96c0.01-0.01 0.02-0.02 0.03-0.03L3.87 3.66c-0.01 0.01-0.02 0.02-0.03 0.02C3.32 4.23 2.9 4.87 2.61 5.56l0.36 0.13C3.24 5.07 3.62 4.48 4.11 3.96ZM13.07 4.15 13.38 3.9C13.36 3.88 13.35 3.85 13.33 3.82 12.83 3.26 12.23 2.79 11.58 2.43l-0.17 0.36c0.44 0.24 0.85 0.54 1.23 0.89 0.16 0.15 0.3 0.3 0.44 0.46zM6.18 2.52 6.05 2.15c-0.01 0-0.02 0-0.03 0.01C5.3 2.46 4.66 2.88 4.12 3.39L4.41 3.66C4.94 3.17 5.54 2.79 6.18 2.52Zm4.89 0.11 0.18-0.35c-0.01-0.01-0.02-0.02-0.03-0.02C10.53 1.93 9.79 1.73 9.02 1.67l-0.01 0.4c0.71 0.06 1.41 0.24 2.06 0.55zM8.63 2.06 8.66 1.66c-0.01 0-0.03-0.01-0.04-0.01C8 1.64 7.37 1.72 6.74 1.9 6.62 1.94 6.5 1.98 6.38 2.02l0.15 0.37C7.21 2.15 7.92 2.04 8.63 2.06Z"/></svg>