<svg xmlns="http://www.w3.org/2000/svg" width="19" height="18" version="1"><path d="M5.23 1.78C3.05 3.25 1.6 5.81 1.6 8.73c0 4.56 3.54 8.26 7.9 8.26 4.36 0 7.9-3.7 7.9-8.26 0-3.01-1.54-5.65-3.85-7.09-0.53-0.25-2.9-1.71 0 0.26 0.74 0.48 1.4 1.08 1.94 1.78 1.34 1.71 1.93 4.02 1.62 6.2-0.3 2.26-1.58 4.33-3.4 5.57-1.79 1.25-4.08 1.62-6.16 1.05-2.21-0.58-4.11-2.28-5.05-4.46-1.01-2.27-0.89-5.04 0.27-7.22 0.58-1.12 1.45-2.08 2.46-2.79 2.88-2.15 0.74-0.77 0-0.27z" style="fill:#000;stroke-width:0.07;stroke:#000"/><path d="m6.12 17.96c0-0.03 1.53-0.8 1.81-0.9 0.38-0.15 1-0.25 1.23-0.21l0.16 0.03-0.18 0.22c-0.1 0.12-0.26 0.27-0.37 0.34-0.25 0.17-0.85 0.38-1.31 0.45-0.32 0.05-1.34 0.1-1.34 0.07zm6.11-0.02c-0.69-0.04-0.74-0.05-1.38-0.25-0.38-0.12-0.48-0.18-0.78-0.46l-0.34-0.33 0.15-0.04c0.39-0.11 1.62 0.25 2.16 0.62 0.1 0.07 0.25 0.15 0.32 0.17 0.16 0.05 0.63 0.29 0.63 0.32 0 0.01-0.03 0.02-0.07 0.02-0.04 0-0.35-0.03-0.69-0.05zM4.73 17.02c-0.29-0.09-0.63-0.19-0.75-0.23l-0.23-0.07 0.39-0.07c0.21-0.04 0.61-0.11 0.89-0.17 0.78-0.16 1.56-0.11 2.06 0.12l0.14 0.06-0.17 0.15c-0.44 0.39-1.42 0.48-2.33 0.19zm7.79 0.06c-0.38-0.14-0.72-0.38-0.62-0.43 0.2-0.12 0.89-0.26 1.24-0.26 0.32 0 1.17 0.13 1.99 0.31 0.15 0.03 0.09 0.06-0.58 0.27-0.66 0.2-0.82 0.23-1.25 0.23-0.35 0-0.57-0.03-0.78-0.11zM8.19 16.65c-0.33-0.1-1.02-0.9-1.14-1.33l-0.04-0.12 0.23 0.12c0.12 0.07 0.39 0.18 0.59 0.24 0.66 0.23 0.97 0.48 1.16 0.95l0.08 0.2-0.35 0c-0.19 0-0.43-0.03-0.52-0.05zm1.87-0.04c0-0.15 0.37-0.62 0.62-0.79 0.11-0.07 0.35-0.18 0.53-0.25 0.18-0.06 0.45-0.17 0.59-0.24l0.26-0.13-0.03 0.14c-0.08 0.33-0.59 1-0.91 1.19-0.18 0.11-0.32 0.15-0.65 0.17-0.39 0.02-0.41 0.02-0.41-0.08zM6.75 16.35c-0.57-0.21-0.97-0.68-1.18-1.38-0.07-0.24-0.15-0.54-0.16-0.67l-0.03-0.23 0.71 0.72c0.73 0.74 0.88 0.96 0.92 1.37 0.03 0.24-0.02 0.28-0.25 0.19zm5.31-0.18c0.06-0.47 0.33-0.84 1.33-1.79l0.32-0.31-0.04 0.28c-0.14 0.88-0.59 1.65-1.12 1.91-0.15 0.07-0.32 0.13-0.39 0.13-0.12 0-0.12-0.02-0.1-0.21zM3.84 15.85c-0.6-0.19-0.76-0.27-1.34-0.68-0.32-0.23-0.57-0.42-0.57-0.42 0.08-0.06 1.97 0.15 2.13 0.24 0.05 0.02 0.24 0.12 0.42 0.21 0.19 0.09 0.43 0.25 0.55 0.35l0.2 0.18-0.19 0.08c-0.31 0.13-0.86 0.15-1.22 0.03zm10.41 0.04c-0.13-0.03-0.26-0.07-0.3-0.11-0.1-0.08 0-0.19 0.38-0.45 0.43-0.29 0.92-0.44 1.63-0.5 0.91-0.08 1.16-0.09 1.13-0.04-0.06 0.1-1.14 0.8-1.39 0.9-0.59 0.24-0.99 0.3-1.45 0.2zM4.83 15.19c-0.33-0.25-0.63-0.69-0.69-1.02-0.03-0.16-0.05-0.59-0.04-0.98l0.02-0.7 0.19 0.38c0.11 0.21 0.25 0.47 0.33 0.58 0.37 0.55 0.57 1.29 0.47 1.71l-0.05 0.2-0.22-0.17zm9.17-0.37c0.03-0.58 0.12-0.86 0.39-1.26 0.07-0.09 0.22-0.37 0.35-0.61l0.23-0.44 0.04 0.45c0.04 0.54-0.03 1.24-0.16 1.53-0.1 0.23-0.55 0.71-0.75 0.83l-0.12 0.07 0.03-0.56zM2.84 14.16c-0.18-0.04-0.4-0.11-0.5-0.17-0.32-0.17-0.86-0.65-1.09-0.97-0.13-0.17-0.3-0.39-0.39-0.49-0.18-0.2-0.17-0.21 0.11-0.1 0.11 0.04 0.33 0.1 0.49 0.14 0.34 0.07 0.92 0.34 1.25 0.59 0.25 0.19 0.64 0.63 0.76 0.87 0.07 0.14 0.07 0.15-0.02 0.15-0.05 0-0.14 0.01-0.2 0.02-0.06 0.01-0.25-0.01-0.43-0.05zm12.86 0.04c-0.08-0.01-0.14-0.04-0.14-0.05 0-0.11 0.32-0.55 0.57-0.78 0.34-0.33 1.05-0.71 1.48-0.8 0.16-0.03 0.39-0.1 0.52-0.14 0.27-0.09 0.33-0.06 0.14 0.06-0.08 0.05-0.22 0.22-0.32 0.37-0.31 0.47-0.47 0.63-1.12 1.07-0.24 0.17-0.85 0.31-1.12 0.27zM3.28 13.48c-0.14-0.16-0.2-0.31-0.27-0.62-0.05-0.22-0.09-0.5-0.09-0.61 0-0.3 0.19-1.21 0.31-1.47 0.1-0.22 0.1-0.22 0.11-0.06 0 0.09 0.09 0.5 0.19 0.91 0.11 0.47 0.18 0.88 0.18 1.1 0 0.35-0.12 0.88-0.21 0.93-0.03 0.02-0.13-0.07-0.23-0.19zm12.23 0.06c-0.21-0.55-0.2-0.91 0.04-1.92 0.09-0.35 0.16-0.71 0.16-0.79 0-0.47 0.23 0.06 0.37 0.85 0.13 0.76-0.04 1.64-0.36 1.89l-0.15 0.12-0.06-0.15zM1.88 12.03c-0.38-0.14-0.75-0.44-0.98-0.79-0.1-0.16-0.32-0.57-0.5-0.93l-0.31-0.65 0.25 0.15c0.14 0.08 0.38 0.24 0.55 0.36 0.17 0.12 0.39 0.27 0.49 0.33 0.38 0.24 0.81 0.92 0.89 1.42 0.04 0.25 0.02 0.25-0.39 0.1zm14.88 0.03c0-0.05 0.07-0.28 0.16-0.52 0.19-0.49 0.43-0.8 0.88-1.11 0.41-0.28 1.08-0.7 1.11-0.7 0.06 0-0.63 1.37-0.81 1.62-0.21 0.3-0.56 0.56-0.94 0.7-0.33 0.12-0.4 0.13-0.4 0.02zM2.25 11.36c-0.14-0.39-0.14-0.87 0-1.33 0.11-0.37 0.79-1.49 0.78-1.3-0.01 0.63-0.11 1.88-0.17 2.07-0.1 0.33-0.26 0.64-0.39 0.76-0.1 0.1-0.11 0.09-0.22-0.2zm14.34 0.2c-0.13-0.14-0.33-0.6-0.4-0.89-0.05-0.23-0.17-1.97-0.14-2.01 0.04-0.04 0.67 1.03 0.77 1.3 0.16 0.45 0.16 1.09 0 1.44-0.07 0.14-0.12 0.26-0.13 0.26-0.01 0-0.05-0.04-0.09-0.09zM1.29 9.64c-0.48-0.32-0.75-0.87-0.9-1.83-0.04-0.27-0.1-0.53-0.12-0.59-0.03-0.08 0.01-0.06 0.15 0.06 0.1 0.09 0.25 0.2 0.32 0.25 0.22 0.16 0.78 1.01 0.89 1.35 0.12 0.38 0.13 0.95 0.02 0.95-0.04 0-0.2-0.09-0.36-0.19zm16.07-0.21c0.04-0.47 0.16-0.82 0.41-1.19 0.18-0.27 0.97-1.1 1.05-1.1 0.02 0 0.02 0.06-0.01 0.14-0.03 0.08-0.08 0.35-0.13 0.6-0.14 0.9-0.44 1.48-0.92 1.77-0.42 0.26-0.44 0.25-0.4-0.22zm-15.51-0.26c-0.02-0.2-0.01-0.4 0.05-0.63 0.14-0.59 0.31-0.85 0.82-1.35 0.26-0.25 0.47-0.45 0.47-0.44 0 0.02-0.04 0.15-0.08 0.31-0.26 0.85-0.41 1.31-0.51 1.48-0.14 0.26-0.62 0.92-0.67 0.92-0.02 0-0.05-0.13-0.07-0.29zm15.08 0.03c-0.43-0.52-0.65-1.04-1.03-2.37l-0.04-0.13 0.13 0.13c0.07 0.07 0.31 0.31 0.52 0.53 0.34 0.33 0.42 0.45 0.54 0.78 0.15 0.41 0.22 1 0.15 1.21-0.04 0.12-0.05 0.12-0.27-0.14zM1.48 7.42c-0.42-0.26-0.59-0.84-0.52-1.8 0.02-0.33 0.04-0.67 0.04-0.76 0-0.17 0.01-0.16 0.18 0.13 0.1 0.17 0.21 0.34 0.25 0.39 0.11 0.12 0.31 0.63 0.39 0.96 0.07 0.29 0.05 0.59-0.05 0.98-0.06 0.24-0.07 0.24-0.29 0.11zm15.85-0.02c-0.04-0.08-0.07-0.33-0.07-0.68 0-0.53 0.01-0.59 0.17-0.91 0.09-0.19 0.27-0.51 0.4-0.71l0.23-0.36 0.04 0.52c0.08 0.92 0.02 1.43-0.2 1.85-0.09 0.17-0.37 0.41-0.47 0.41-0.02 0-0.06-0.05-0.1-0.12zM1.98 7.06c0-0.45 0.26-0.95 0.71-1.36 0.19-0.17 1.11-0.71 1.21-0.71 0.02 0-0.05 0.09-0.14 0.2-0.09 0.11-0.31 0.42-0.48 0.68-0.35 0.53-0.69 0.92-1.02 1.16-0.27 0.19-0.28 0.19-0.28 0.02zm14.86 0c-0.31-0.21-0.75-0.66-0.87-0.89-0.15-0.31-0.42-0.7-0.61-0.9-0.1-0.1-0.17-0.21-0.17-0.23 0-0.03 0.24 0.08 0.53 0.24 0.41 0.22 0.6 0.36 0.86 0.65 0.33 0.36 0.41 0.52 0.52 1.1 0.04 0.21 0.01 0.22-0.26 0.03zM2.05 5.26c-0.34-0.59-0.33-0.97 0.07-2.19l0.15-0.45 0.18 0.55c0.14 0.43 0.18 0.64 0.18 0.96 0 0.45-0.14 0.92-0.35 1.17l-0.12 0.14-0.11-0.19zm14.78 0.11c-0.03-0.04-0.12-0.21-0.21-0.37-0.14-0.27-0.15-0.34-0.15-0.89 0-0.53 0.02-0.64 0.17-1.02 0.1-0.26 0.17-0.4 0.19-0.35 0.23 0.61 0.45 1.42 0.45 1.68 0 0.23-0.17 0.73-0.31 0.9-0.07 0.09-0.1 0.1-0.15 0.04zM2.59 5.04c0.18-0.58 0.93-1.14 1.81-1.35 0.52-0.13 0.56-0.11 0.25 0.13-0.15 0.12-0.36 0.29-0.46 0.39-0.44 0.42-1.3 0.95-1.54 0.95-0.07 0-0.09-0.03-0.06-0.12zm13.68 0.08c-0.19-0.05-0.74-0.39-1.03-0.63-0.16-0.13-0.46-0.38-0.67-0.55-0.21-0.17-0.37-0.32-0.36-0.33 0.05-0.05 0.71 0.12 1.09 0.29 0.49 0.21 0.89 0.56 1.08 0.92 0.17 0.33 0.15 0.37-0.12 0.3zM3.04 3.37c-0.08-0.37-0.03-0.83 0.12-1.13 0.07-0.15 0.29-0.46 0.47-0.69l0.34-0.42 0.04 0.35c0.08 0.77-0.1 1.41-0.53 1.84-0.15 0.16-0.3 0.28-0.33 0.28-0.03 0-0.07-0.1-0.1-0.23zm12.61-0.01c-0.15-0.14-0.31-0.36-0.39-0.55-0.13-0.28-0.14-0.39-0.16-1.01l-0.02-0.7 0.2 0.24c0.58 0.69 0.74 0.98 0.79 1.47 0.03 0.32-0.05 0.79-0.13 0.79-0.02 0-0.15-0.11-0.29-0.24zM3.82 3.17c0.45-0.43 0.9-0.59 1.71-0.59 0.58 0 0.68 0.06 0.34 0.19-0.14 0.05-0.44 0.19-0.67 0.31-0.46 0.23-0.95 0.36-1.38 0.36l-0.28 0 0.28-0.27zm10.82 0.2c-0.17-0.04-0.54-0.18-0.81-0.31-0.27-0.13-0.59-0.28-0.69-0.32-0.28-0.1-0.15-0.16 0.4-0.16 0.84 0 1.37 0.19 1.82 0.67l0.18 0.19-0.29 0c-0.16 0-0.43-0.03-0.6-0.07zm-9.37-1.1c-0.11-0.02-0.21-0.05-0.23-0.07-0.06-0.06 0.08-0.18 0.36-0.31 0.42-0.19 1.07-0.18 1.68 0.03 0.25 0.09 0.46 0.18 0.46 0.2 0 0.02-0.09 0.04-0.2 0.04-0.11 0-0.46 0.04-0.77 0.08-0.62 0.08-0.98 0.09-1.3 0.03zm7.43 0c-0.17-0.02-0.51-0.06-0.75-0.08-0.24-0.02-0.42-0.06-0.39-0.08 0.09-0.09 0.85-0.31 1.17-0.35 0.39-0.04 0.91 0.07 1.16 0.25 0.17 0.13 0.19 0.18 0.06 0.24-0.15 0.06-0.91 0.08-1.24 0.03zm-8.17-0.19c-0.11-0.47 0.23-1.05 0.89-1.51 0.17-0.12 0.36-0.24 0.42-0.28l0.11-0.06-0.09 0.37c-0.13 0.52-0.28 0.81-0.58 1.13-0.21 0.22-0.59 0.49-0.69 0.49-0.01 0-0.04-0.06-0.06-0.14zm9.71 0.03c-0.25-0.13-0.72-0.67-0.84-0.95-0.1-0.23-0.28-0.88-0.25-0.91 0.01-0.01 0.19 0.1 0.4 0.24 0.42 0.28 0.88 0.79 0.96 1.08 0.06 0.22 0.04 0.6-0.03 0.62-0.03 0.01-0.14-0.03-0.24-0.09zm-8.04-0.98c0.11-0.52 0.38-0.73 1.2-0.95 0.2-0.05 0.41-0.12 0.46-0.14 0.18-0.08-0.05 0.29-0.46 0.7-0.39 0.4-0.7 0.56-1.09 0.56-0.14 0-0.15-0.01-0.12-0.17zm6.11 0.09c-0.13-0.05-0.33-0.16-0.44-0.25-0.19-0.16-0.78-0.9-0.75-0.94 0.01-0.01 0.13 0.02 0.27 0.06 0.14 0.04 0.4 0.12 0.59 0.18 0.51 0.15 0.9 0.55 0.9 0.93 0 0.09-0.03 0.11-0.17 0.11-0.09 0-0.27-0.04-0.4-0.09z" style="fill:#000;stroke-width:0.03;stroke:#000"/></svg>