<svg xmlns:svg="http://www.w3.org/2000/svg" xmlns="http://www.w3.org/2000/svg" height="18" viewBox="0 0 16 18" width="16" version="1.1"><path d="m6.46 1.73c-0.67 0.36-0.51 0.7 0 1.02l0 2.76C4.24 4.16 3.76 2.28 3.54 0.2 2.67 0.9 1.99 1.74 1.49 2.67l0.42 1.04-0.89-0.01C-0.31 7.24 0.64 11.63 3.34 14.18 3.8 12.72 4.41 11.35 6.46 10.93l0 2.92c-1.16 0.04-0.88 0.55 0 1.26 0.13 0.49 0.1 0.97 0 1.46-1.04 0.44-0.97 0.86 0 1.26 0.86 0.24 1.73 0.2 2.59 0 0.9-0.3 1-0.93 0-1.2-0.1-0.52-0.13-1.04 0-1.56 1.3-1.05 0.66-1.16 0-1.27l0-2.99c1.67 0.45 2.51 1.79 3.02 3.49 0.87-0.77 1.58-1.62 2.13-2.52l-0.34-0.62 0.75-0.12C16.03 8.2 15.9 4.92 14.02 2.09L13.21 1.97 13.33 1.17C13 0.76 12.62 0.38 12.21 0 11.94 2.75 11.1 4.82 9.06 5.45l0-2.69c0.61-0.34 0.62-0.68 0-1.03-0.91-0.25-1.77-0.27-2.59 0z" fill="#000"/></svg>