<svg xmlns:svg="http://www.w3.org/2000/svg" xmlns="http://www.w3.org/2000/svg" height="18" viewBox="0 0 16 14.4" width="20" version="1.1"><path d="M3.56 14.14 0.78 6.39c-0.06-0.16-0.01-0.33 0.12-0.44L8.16 0.08c0.04-0.03 0.09-0.06 0.14-0.07l0.12-0.01 0.03 0 0.04 0.01 0.07 0.01c0.05 0.02 0.09 0.04 0.13 0.08l6.42 5.87c0.12 0.11 0.16 0.28 0.1 0.44l-3.14 7.75C12.01 14.3 11.87 14.4 11.71 14.4l-7.78 0c-0.17 0-0.31-0.1-0.37-0.26zm7.61-0.57-2.35-3.19-1.13 0.12-3.4 3.07 6.88 0zm0.53-0.68 2.52-6.22-1 0-3.65 3.33 2.13 2.89zm-7.75-0.13 3.01-2.71-2.49-3.38-2.71 0 2.19 6.09zm3.75-3.09 1.13-0.12 3.15-2.88-6.5 0 2.21 3zm0.35-3.82 1.84-3.54-1.49-1.35-6.07 4.9 5.71 0zm4.84 0 0 0 0.87 0-1.74-1.59 0 0-1.51-1.38-1.54 2.97 3.91 0z" fill="#000"/></svg>