<svg xmlns="http://www.w3.org/2000/svg" version="1.1" width="19" height="18" viewBox="0 0 19 18"><path d="M2.28 9.46C3.55 7.9 5.85 7.03 7.51 6.76 7.67 6.4 7.95 6.12 8.46 6.13 10.01 2.44 13.08 0 16.12 0c1.65 0 3.51 2.64 1.54 4.77-0.23 0.25-0.46 0.43-0.31 0.67 0.69 1.12 1.19 1.99 0.69 2.57-0.51 0.4-1.1 0.73-0.69 1.46 0.45 0.61 0.87 1.26 0.35 2.49C17.48 11 18.08 11.27 17 9.67 16.47 8.97 16.76 8.47 17.2 8.01 18.26 7.42 16.91 6.09 16.68 5.67 15.08 6.75 14.7 8.69 13.87 9.25l-3.03-0.06c-0.32 2.68-1.12 3.14-1.91 3.58-2.23 0.35-2.36 1.58-4.5 2.24-0.46-0.01-0.65 0.56 0.17 0.52 1.24 0.28 0.96 1.44 1.96 1.43C7.26 16.98 7.93 16.62 8.68 18 7.33 16.9 7.04 17.4 6.37 17.42 5.79 17.5 5.34 17.15 4.95 16.54 4.61 15.92 4.03 16.04 3.54 15.9 2.29 15.9 1.66 15.44 1.09 14.76-0.34 13.04 1.09 10.91 2.28 9.46ZM4.6 12.97C6.46 11.99 7.32 10.83 7.81 9.16 6.25 9.06 4.79 9.44 3.16 10.76 1.91 11.81 2.75 13.9 4.6 12.97ZM15.55 4.2c1.63-1.51 0.35-3.16-1.28-2.37-1.87 1.13-2.46 2.56-2.88 4.02 1.17 0.16 2.49-0.2 4.16-1.65z" fill="#000"/></svg>