<svg xmlns:svg="http://www.w3.org/2000/svg" xmlns="http://www.w3.org/2000/svg" height="18" viewBox="0 0 13.6 14.4" width="17" version="1.1"><path d="m1.88 13.92c0-0.26 0.22-0.42 0.47-0.42 0.26 0 0.45 0.16 0.45 0.42C2.81 14.19 2.6 14.4 2.35 14.4 2.09 14.4 1.88 14.19 1.88 13.92ZM0 13.97c0-0.22 0.18-0.4 0.39-0.4 0.22 0 0.39 0.18 0.39 0.4 0 0.22-0.18 0.4-0.39 0.4-0.22 0-0.39-0.18-0.39-0.4zm2.93-0.64c0-0.59 0.46-1.06 1.03-1.06 0.27 0 0.51 0.11 0.7 0.28 0.07-0.03 0.09-0.03 0.18-0.03-0.02-0.1-0.03-0.2-0.03-0.3 0-0.76 0.6-1.37 1.33-1.37 0.73 0 1.39 0.59 1.39 1.35 0 0.17-0.01 0.33-0.06 0.48-0.02 0.11 0.12 0.23 0.25 0.03C8.71 10.37 5.43 7.87 3.67 8.73 3.86 8.27 4.66 7.82 5.52 7.49 6.02 7.29 6.51 7.07 6.98 6.82 7.02 6.8 7.05 6.78 7.09 6.77 10.36 10 11.09 10.35 7.47 6.56c0.03-0.02 0.06-0.03 0.08-0.05 0.68-0.38 1.24-0.78 1.77-1.24 0.02-0.01 0.04-0.03 0.06-0.04 2.49 2.02 2.89 1.8 0.41-0.36 0.01-0.01 0.02-0.02 0.03-0.03 0.51-0.46 0.94-0.92 1.33-1.41 1.41 1.36 2.19 1.59 0.2-0.26 0.24-0.31 0.46-0.63 0.66-0.98 0.03-0.03 0.05-0.07 0.07-0.1 1.02 0.59 1.27 0.49 0.24-0.39 0.14-0.25 0.28-0.51 0.39-0.78 0.07-0.14 0.14-0.28 0.2-0.43 0.13-0.25 0.17-0.36 0.22-0.47l0 0c0 0 0-0.01 0-0.01 1.39 3.74-0.56 9.13-4.61 12.83-0.75 0.58-0.92 0.75-1.44 0.76-0.21 0-0.52 0.01-0.89-0.04-0.38 0-0.72-0.16-0.96-0.42-0.07 0.02-0.16 0.03-0.25 0.03l-0.01 0c0.01 0.05 0.01 0.11 0.01 0.16 0 0.59-0.47 0.94-1.04 0.94-0.57 0-1.03-0.36-1.03-0.94zM1.03 13.54C0.58 13.36-0.12 12.63 0.4 12.24 0.83 12.04 1.44 12.51 2.47 11.74 2.88 11.41 2.69 11.11 2.39 11.23 2.18 11.31 2.01 11.45 1.84 11.66 1.66 11.88 1.37 11.76 1.38 11.57 1.33 11.17 1.43 10.33 1.82 9.87 2.1 9.54 2.73 9.58 2.95 10.47 3.13 11.21 3.84 11.05 3.58 10.45 3.33 9.63 3.44 9 4.11 8.84 5.9 8.53 7.12 10.05 7.52 11.28 6.28 9.94 4.53 10.79 4.52 12.14 3.27 11.81 3.08 12.43 2.69 12.87 2.28 13.32 1.59 13.75 1.03 13.54ZM3.71 8.63 3.67 8.73c0 0 0 0 0 0 0.01-0.04 0.03-0.07 0.04-0.1z" fill="#000"/></svg>