<svg xmlns:svg="http://www.w3.org/2000/svg" xmlns="http://www.w3.org/2000/svg" height="18" viewBox="0 0 18 18" width="18" version="1.1"><path d="m3.01 2.51c-1.74 1.81-3.05 4.61-2.61 7.1 0.45 2.59 2.67 4.94 5.05 6.04 1.82 0.85 4.2 0.77 6.05-0.04 1.87-0.82 3.51-2.55 4.17-4.49 0.51-1.49 0.31-3.29-0.37-4.69-0.64-1.29-1.82-2.3-3.2-2.89l-0.44-0.19 0.37 0.29c1.11 0.89 2.14 1.85 2.61 3.1 0.49 1.29 0.59 2.82 0.11 4.1-0.62 1.7-2.01 3.25-3.66 3.97-1.64 0.72-3.77 0.85-5.37 0.04C3.71 13.84 2.06 11.58 1.76 9.33 1.5 7.23 2.6 4.93 4.05 3.35 5.33 1.96 7.26 1.09 9.14 0.88 11.14 0.67 13.11 1.41 15.02 2.28l0.06-0.11C13.39 0.98 11.14-0.06 8.97 0 6.82 0.07 4.51 0.95 3.01 2.51ZM5.81 2.88C4.28 4.01 2.94 5.86 2.81 7.79 2.68 9.74 3.61 11.99 5.16 13.18c1.49 1.14 3.81 1.47 5.57 0.82 1.8-0.67 3.52-2.49 3.76-4.4C14.74 7.69 13.84 5.99 12.61 4.74 11.41 3.51 9.44 2.99 7.97 3.83 6.64 4.59 5.45 6.1 5.34 7.65 5.23 9.23 6.11 10.99 7.44 11.89L7.7 12.06 7.52 11.79C6.71 10.58 6.02 9.16 6.17 7.76 6.32 6.45 7.15 5.1 8.26 4.38 9.45 3.6 11.11 4.13 12.02 5.3 12.92 6.46 13.32 8.19 13 9.63 12.67 11 11.64 12.36 10.34 12.9 8.92 13.49 6.97 13.38 5.76 12.45 4.45 11.45 3.85 9.45 4 7.79 4.14 6.21 5.21 4.71 6.46 3.73 7.6 2.83 9.16 2.25 10.6 2.39c1.66 0.15 3.4 1.06 4.4 2.4 1.15 1.52 1.52 3.7 1.29 5.61-0.21 1.7-1.11 3.41-2.39 4.55-1.44 1.3-3.46 2.06-5.41 2.17C6.91 17.2 5.3 16.63 3.94 15.83 2.98 15.25 2.25 14.24 1.56 13.41L1.31 13.11 1.45 13.48c0.42 1.09 1.27 2.21 2.29 2.92 1.39 0.97 3.12 1.61 4.82 1.6 2.11-0.01 4.36-0.71 6-2.05 1.55-1.27 2.75-3.21 3.04-5.2C17.9 8.65 17.36 6.24 16.04 4.56 14.77 2.95 12.64 1.95 10.61 1.7 8.99 1.5 7.15 1.91 5.81 2.89Z" fill="#000"/></svg>