<svg xmlns="http://www.w3.org/2000/svg" version="1.1" width="17" height="18" viewBox="0 0 17 18"><path d="M16.28 17.96C16.03 17.84 15.88 17.66 15.78 17.31 14.97 16.33 14.17 15.4 13.11 14.46 12.86 14.25 12.61 14.1 12.36 13.99 9.01 15.41 1.66 10.76 0.03 5.01 5.09 6.15 7.62 4.05 7.56 0 12.79 2.91 15.44 10.01 13.54 12.96c0.08 0.34 0.2 0.68 0.43 1 0.8 1.18 1.61 1.99 2.41 2.75 0.31 0.13 0.5 0.31 0.58 0.63 0.09 0.36-0.35 0.79-0.66 0.63zM7.67 7.49C6.88 6.91 4.59 6.88 3.61 7.1 2.77 7.29 2.78 8.75 4.62 8.85 6.02 8.93 7.11 8.73 7.67 7.49ZM10.34 4.64C10.68 2.84 9.27 2.48 8.89 3.24 8.44 4.14 7.93 6.38 8.29 7.26 9.63 7.01 10.09 6.01 10.36 4.64Z" fill="#000"/></svg>