<svg xmlns="http://www.w3.org/2000/svg" version="1.1" width="25px" height="18px" viewBox="0 0 25 18"><path d="M0.37 17.97C0.24 17.89 0.2 17.73 0.27 17.61C0.55 17.11 1.1 16.72 1.85 16.41L2.57 16.16L2.3 0.27C2.3 0.12 2.42 0 2.56 0L4.63 0C4.77 0 4.89 0.12 4.89 0.26L4.89 1.21L5.41 1.03L5.46 0.31C5.48 0.17 5.6 0.06 5.74 0.07L7.18 0.14C7.32 0.14 7.44 0.26 7.44 0.4L7.44 1.37L7.91 1.3L7.97 0.39C7.98 0.25 8.09 0.14 8.23 0.14L9.71 0.14C9.86 0.14 9.98 0.26 9.97 0.4L9.96 5.95L10.26 5.95L10.48 5.25C10.51 5.15 10.6 5.08 10.71 5.07L11.37 5C11.5 4.99 11.61 5.06 11.65 5.18L11.94 6.01L12.62 5.99L12.81 5.42C12.84 5.32 12.94 5.24 13.06 5.24L14.04 5.24C14.14 5.24 14.23 5.3 14.27 5.38L14.69 6.1L15.24 6.14L15.26 0.33C15.26 0.18 15.38 0.06 15.54 0.07L16.98 0.14C17.05 0.14 17.12 0.17 17.16 0.22L17.23 0.41L17.25 1.21L17.84 1.23L17.86 0.36C17.87 0.22 17.98 0.11 18.12 0.1L19.52 0.08C19.67 0.07 19.79 0.19 19.79 0.33L19.8 1.25L20.39 1.26L20.41 0.32C20.41 0.18 20.53 0.06 20.68 0.06L22.12 0.1C22.26 0.11 22.37 0.22 22.37 0.37L22.41 15.77L23.4 15.94C23.77 16.01 24.16 16.09 24.56 16.17C24.7 16.2 24.79 16.34 24.76 16.48C24.73 16.63 24.59 16.72 24.45 16.69C18.45 15.43 15.54 15.96 14.24 17.3C14.14 17.41 13.97 17.41 13.87 17.31C13.76 17.2 13.76 17.04 13.86 16.93C14.29 16.49 14.85 16.14 15.57 15.89L15.59 15.88L13.58 15.83C10.86 15.78 8.37 15.84 6.31 16.03C3.21 16.33 1.25 16.94 0.73 17.86C0.66 17.99 0.5 18.04 0.37 17.97zM3.1 16.01L3.69 15.87C4.45 15.72 5.32 15.6 6.26 15.51C6.76 15.46 7.28 15.42 7.83 15.39L9.41 15.32L9.45 0.67L8.48 0.67L8.43 1.55C8.42 1.67 8.32 1.77 8.2 1.79L7.21 1.93C7.05 1.95 6.91 1.83 6.91 1.67L6.91 0.65L5.97 0.61L5.92 1.25C5.91 1.35 5.84 1.44 5.74 1.48L4.71 1.82C4.54 1.88 4.36 1.75 4.36 1.57L4.36 0.53L2.83 0.53L3.1 16.01zM21.88 15.7L21.84 0.62L20.94 0.6L20.92 1.53C20.92 1.67 20.8 1.79 20.65 1.79L19.54 1.77C19.4 1.77 19.29 1.66 19.28 1.51L19.27 0.61L18.39 0.63L18.37 1.51C18.36 1.66 18.24 1.77 18.09 1.77L16.98 1.72C16.9 1.72 16.84 1.69 16.79 1.64L16.72 1.46L16.7 0.65L15.79 0.61L15.75 15.35L15.79 15.35C16.64 15.35 19.49 15.41 21.28 15.61L21.88 15.7zM15.22 15.34L15.24 6.67L14.51 6.62C14.43 6.61 14.35 6.56 14.31 6.49L13.89 5.77L13.25 5.77L13.06 6.33C13.03 6.44 12.93 6.51 12.82 6.51L11.76 6.55C11.65 6.55 11.54 6.48 11.5 6.37L11.22 5.55L10.93 5.58L10.7 6.29C10.67 6.4 10.57 6.48 10.45 6.48L9.96 6.48L9.94 15.31L11.03 15.29L10.99 11.28C10.99 10.34 11.56 9.45 12.43 9.45C13.25 9.45 14.28 10.21 14.28 11.19L14.25 15.31L15.22 15.34zM18.52 6.15L18.49 3.58L19.07 3.57L19.11 6.14L18.52 6.15zM5.97 6.01L5.93 3.61L6.52 3.6L6.55 6L5.97 6.01z" fill="#000"/></svg>