<svg xmlns:svg="http://www.w3.org/2000/svg" xmlns="http://www.w3.org/2000/svg" width="19" height="18" viewBox="0 0 19 18" version="1.1"><path d="m10.47 17.94-9.71-2.8c-0.22-0.09-0.26-0.21-0.3-0.32l0.04-6.84c-0.18-0.1-0.17-0.54 0-0.79 0.46-0.35 1.08-0.94 1.44-0.89 0.02 0 0.04 0.01 0.06 0.02 0.21-0.4 0.63-0.68 1.12-0.68 0.17 0 0.33 0.03 0.48 0.09 0.24-0.39 0.68-0.66 1.17-0.66 0.21 0 0.42 0.05 0.6 0.14 0.02-0.03 0.04-0.06 0.06-0.09l-1.79-3.49c-0.25-0.53-0.2-0.72-0.04-0.88 0.85-0.63 1.89-0.85 3.24-0.72 3.22 0.51 6.38 1.09 9.43 1.83 1.42 0.34 3.57 2.74 1.5 5.67l0.21 0.18 0.02 6.57c-0.02 0.22-0.11 0.38-0.29 0.47-0.02 0.1-6.2 2.97-6.68 3.22-0.2 0.04-0.36 0.04-0.56-0.03zm0.03-0.83-0.04-7.01C8.73 9.22 2.83 7.53 1.28 7.79c-0.05 0.56-0.02 5.98-0.05 6.67l9.27 2.66zm6.68-2.82-0.07-5.85c-2.1 0.13-4.12 0.87-6.11 1.81 0.08 1.65 0 4.92 0.01 6.78 0 0 0 0 0 0 0.19-0.01 6.17-2.81 6.17-2.74zm-4.95-3.91c0.25-0.68 1.34-0.75 1.59-0.16 0.15 0.36 0.3 0.61 0.45 0.85 0.27 0.39 0.66 0.26 0.62-0.27-0.18-1.25 0.1-1.69 0.7-1.72 0.65-0.04 1.18 0.57 0.94 2.45-0.17 0.97-1.01 1.63-2.02 1.66-1.5-0.29-2.58-1.99-2.29-2.8zm2.9 2.19c0.7-0.23 1.15-1.28 0.98-2.27-0.18-1.21-0.92-0.7-0.84-0.25 0.06 0.46 0.07 0.8-0.01 1.26-0.24 0.86-1.16 0.52-1.4 0.06-0.6-1.17-0.87-1.02-1.01-0.94-0.19 0.15-0.21 0.39-0.03 0.7 0.9 1.46 1.75 1.63 2.31 1.44zm-8.07-0.11-3.45-0.92c-0.5-0.08-0.25-0.93 0.08-0.76l0.59 0.16-0.01-1.52c0.02-0.23 0.14-0.37 0.47-0.34l1.36 0.38c0.29 0.08 0.29 0.3 0.3 0.74l0.04 1.28 0.64 0.18c0.45-0.05 0.55 0.96-0.01 0.79zm-1.72-1.47 0.01-0.98-0.44-0.09 0 0.97 0.43 0.1zM11.83 9.04c-0.03-0.08-0.05-0.17-0.06-0.25-0.11-0.06-0.23-0.09-0.36-0.09-0.37 0-0.69 0.26-0.78 0.6 0.1 0.04 0.2 0.09 0.29 0.13 0.31-0.14 0.61-0.27 0.9-0.39zm-0.8-0.68c-0.14-0.23-0.4-0.39-0.69-0.39-0.44 0-0.8 0.36-0.8 0.8 0 0.03 0 0.06 0.01 0.09 0.25 0.09 0.49 0.18 0.72 0.28 0.11-0.37 0.4-0.66 0.77-0.79zm2.6 0.02c-0.12-0.3-0.41-0.51-0.75-0.51-0.44 0-0.8 0.36-0.8 0.8 0 0.09 0.02 0.17 0.04 0.25 0.52-0.21 1.02-0.38 1.51-0.54zm-3.97-0.47c-0.16-0.27-0.45-0.44-0.79-0.44-0.48 0-0.88 0.38-0.92 0.85 0.44 0.14 0.87 0.28 1.29 0.43 0.01-0.34 0.17-0.64 0.42-0.84zm1.75 0.39c0.01 0 0.03 0 0.04 0 0.21-0.14 0.34-0.38 0.34-0.65 0-0.44-0.36-0.8-0.8-0.8-0.44 0-0.8 0.36-0.8 0.8 0 0.01 0 0.03 0 0.04 0.05-0.01 0.1-0.01 0.16-0.01 0.44 0 0.82 0.26 0.99 0.63 0.02 0 0.05 0 0.08 0zm-3.67-0.94c0-0.51-0.41-0.92-0.92-0.92-0.51 0-0.92 0.41-0.92 0.92 0 0.14 0.03 0.27 0.09 0.39 0.44 0.12 0.89 0.24 1.34 0.38 0.25-0.17 0.41-0.45 0.41-0.77zm2.55-0.62c-0.12-0.16-0.32-0.26-0.53-0.26-0.36 0-0.66 0.29-0.68 0.65 0.31 0.05 0.58 0.21 0.77 0.44 0.02-0.34 0.19-0.63 0.44-0.83zm-4.65-0.28c0-0.47-0.39-0.86-0.86-0.86-0.47 0-0.86 0.39-0.86 0.86 0 0.47 0.39 0.86 0.86 0.86 0.47 0 0.86-0.39 0.86-0.86zm2.61 0.81c0.14-0.08 0.3-0.13 0.48-0.15 0.03-0.32 0.16-0.57 0.39-0.76-0.11-0.24-0.35-0.4-0.62-0.4-0.34 0-0.62 0.25-0.67 0.57 0.15 0.2 0.26 0.43 0.29 0.67 0.04 0.03 0.08 0.05 0.13 0.07zm-4.85-0.81c0-0.12 0.02-0.24 0.05-0.36-0.1-0.04-0.21-0.06-0.32-0.06-0.47 0-0.86 0.39-0.86 0.86 0 0.03 0 0.06 0 0.09 0.37 0.04 0.83 0.12 1.35 0.22-0.14-0.22-0.22-0.47-0.22-0.75zm14.41 0.06c0.76-1.93-0.36-3.49-1.75-3.66-0.41-0.02-0.49 0.05-0.31 0.43 0.49 1.12 1 2.22 1.56 3.27 0.08 0.24 0.38 0.33 0.5-0.04zM6.81 6.05c0.2 0 0.39 0.05 0.57 0.13 0.02-0.08 0.03-0.16 0.03-0.24 0-0.47-0.39-0.86-0.86-0.86-0.33 0-0.61 0.18-0.76 0.45 0.18 0.19 0.3 0.44 0.35 0.71 0.2-0.12 0.43-0.19 0.67-0.19zm8.84-3.85c0.04-0.15-7.57-1.8-10.28-1.66-0.99 0.09-1.04 0.43-0.64 0.52 2.75 0.3 5.47 0.69 8.18 1.12 1.52 0.29 2.58 0.36 2.74 0.03z" fill="#000"/></svg>