<svg xmlns:svg="http://www.w3.org/2000/svg" xmlns="http://www.w3.org/2000/svg" height="32" viewBox="0 0 32 32" width="32" version="1.1"><path d="M16 7 13 13.5 6 14 11.5 18.5 10 25 16 22 22 25 20.5 18.5 26 14 19 13.5Z" style="fill-opacity:0.2;fill:#333"/><path d="M27.74 13.35 19.3 12.62 16 4.84 12.7 12.63 4.26 13.35 10.67 18.9 8.74 27.16 16 22.78 23.26 27.16 21.34 18.9 27.74 13.35ZM16 20.58 11.58 23.25 12.76 18.22 8.86 14.84 14 14.39 16 9.66l2.01 4.74 5.14 0.45-3.9 3.38 1.17 5.03L16 20.58Z" fill="#000"/></svg>