<svg height="32" viewBox="0 0 32 32" width="32" xmlns="http://www.w3.org/2000/svg">
    <path d="M29.33 12.5 19.75 11.66 16 2.83 12.25 11.67 2.67 12.5 10 18.75 7.75 28.15 16 23.2L24.25 28.17 22 18.8 29.33 12.5zM16 20.7 11 23.75 12.33 18 7.9 14.18 13.73 13.67 16 8.3L18.3 13.7 24.12 14.2 19.7 18 21 23.75L16 20.7z" fill="#000"/>
	<path d="M16 8.17 13.73 13.5 7.9 14L12.32 17.9 11 23.6 16 20.57 21 23.61 19.7 17.9 24.1 14 18.3 13.6z" fill-opacity="0.2" fill="#333"/>
    <path d="M0 0h32v32H0z" fill="none"/>
</svg>