<svg xmlns:svg="http://www.w3.org/2000/svg" xmlns="http://www.w3.org/2000/svg" height="24" viewBox="0 0 24 24" width="24" version="1.1"><path d="m14.75 22c1.55-0.02 3.27 0 4.69 0 1.19 0 1.57-0.89 1.56-1.97-0.01-1.72-0.01-7.32 0-9.06 0.01-1.11-0.37-1.98-1.56-1.97-1.38 0.01-3.14-0.01-4.69 0-1.09 0.01-1.74 0.89-1.75 1.97-0.01 1.77 0 7.34 0 9.06 0 1.1 0.65 1.98 1.75 1.97z" stroke-width="2" stroke="#000" fill="none"/><path d="m 13.5,20 0,-2 -3.5,0 C 9.4,18 9,17.6 9,17 L 9,8 C 9,7.3 9.34,7 10,7 l 4,0 c 0.6,0 0.98,0.39 1,1 l 0,0.5 2,0 0,-0.5 0,-0.5 c 0,-1.4 -0.83,-2.5 -2,-2.5 L 9.4,5 C 8.13,5 7,5.9 7,7 L 7,17.7 C 7,19 8.15,20 9.4,20 Z" fill="#000"/><path d="m 8.5,17 0,-2 -3.5,0 C 4.4,15 4,14.6 4,14 L 4,5 c 0,-0.7 0.34,-1 1,-1 l 4,0 c 0.6,0 0.98,0.39 1,1 l 0,0.5 2,0 0,-0.5 0,-0.5 c 0,-1.4 -0.83,-2.5 -2,-2.5 l -5.6,0 C 3.13,2 2,2.9 2,4 L 2,14.7 C 2,15.95 3.15,17 4.4,17 Z" fill="#000"/></svg>