<svg xmlns:svg="http://www.w3.org/2000/svg" xmlns="http://www.w3.org/2000/svg" width="19" height="19" viewBox="0 0 19 19" version="1.1"><path d="M1.02 0.05C3.75 1.19 7.26 1.38 9.45 0.08 12.5 1.35 15.29 1.1 17.88 0.12L18.02 5.22C15.92 5.37 14.82 8.6 17.21 10.51 13.79 21.73 5.39 21.93 1.79 10.36 3.41 9.61 4.29 6.02 0.97 5.14" fill="#000"/><path d="M2 1.48C4.36 2.2 8.04 2.14 9.56 1.19 12.38 2.24 14.93 2.04 16.92 1.48L17 4.44C14.4 5.71 14.3 8.99 16.06 10.77 12.87 20.74 6.08 19.99 2.98 10.75 5.27 8.66 4.14 5.17 1.98 4.39" fill="#8ed15d"/></svg>