<svg xmlns="http://www.w3.org/2000/svg" height="500" width="500" version="1.1" xmlns:xlink="http://www.w3.org/1999/xlink"><defs><clipPath id="cardClip"><rect height="470" width="470" y="15" x="15"/></clipPath></defs><image xlink:href="action_back.jpg" height="308" width="538" y="25" x="-20"/><g clip-path="url(#cardClip)"><image width="190" xlink:href="card_back.png" height="292" y="257" x="156"/><image width="190" xlink:href="card_back.png" transform="rotate(8.5)" height="293" y="213" x="246"/><image width="190" xlink:href="card_back.png" transform="rotate(14.4)" height="292" y="176" x="320"/><image width="190" xlink:href="card_back.png" transform="matrix(.91830 .39588 -.39588 .91830 0 0)" height="293" y="108" x="393"/><image width="190" xlink:href="card_back.png" transform="rotate(32.8)" height="293" y="23" x="455"/><image width="190" xlink:href="card_back.png" transform="matrix(.74746 .6643 -.6643 .74746 0 0)" height="293" y="-65" x="500"/><image width="190" xlink:href="card_back.png" transform="matrix(.62507 .78056 -.78056 .62507 0 0)" height="293" y="-166" x="533"/><image width="190" xlink:href="card_back.png" transform="rotate(62.5)" height="293" y="-287" x="540"/><image width="190" xlink:href="card_back.png" transform="rotate(67.5)" height="293" y="-344" x="545"/><image width="190" xlink:href="card_back.png" transform="rotate(74)" height="293" y="-419" x="540"/><image width="190" xlink:href="card_back.png" transform="rotate(84.7)" height="293" y="-535" x="504"/><image width="190" xlink:href="card_back.png" transform="matrix(.6643 -.74746 .74746 .6643 0 0)" height="293" y="242" x="-363"/><image width="190" xlink:href="card_back.png" transform="matrix(.78056 -.62507 .62507 .78056 0 0)" height="293" y="282" x="-265"/><image width="190" xlink:href="card_back.png" transform="rotate(-27.5)" height="293" y="307" x="-156"/><image width="190" xlink:href="card_back.png" transform="rotate(-22.5)" height="293" y="308" x="-97.9"/><image width="190" xlink:href="card_back.png" transform="rotate(-15.9)" height="293" y="303" x="-22"/><image width="190" xlink:href="card_back.png" transform="rotate(-5.3)" height="293" y="279" x="85"/><image width="190" xlink:href="card_back.png" height="293" y="177" x="157"/></g><path d="m194 80h112l-56 56z"/><rect stroke-linejoin="round" height="470" width="470" y="15" x="15" stroke="#000" stroke-width="30" fill="none"/></svg>